<?xml version="1.0" encoding="UTF-8" standalone="no"?><svg xmlns="http://www.w3.org/2000/svg" xmlns:xlink="http://www.w3.org/1999/xlink" clip-rule="evenodd" stroke-miterlimit="4.00" viewBox="0 0 299 45"><desc>SVG generated by Keynote</desc><defs></defs><g transform="matrix(1.00, 0.00, -0.00, -1.00, 0.0, 45.0)"><text xml:space="preserve" font-family="AvenirNext-Medium" font-size="31.6" fill="#838686" transform="matrix(1.00, 0.00, -0.00, -1.00, 0.0, 12.5)">A</text><text xml:space="preserve" font-family="AvenirNext-Medium" font-size="31.6" fill="#838686" transform="matrix(1.00, 0.00, -0.00, -1.00, 22.5, 12.5)">.</text><text xml:space="preserve" font-family="AvenirNext-Medium" font-size="31.6" fill="#838686" transform="matrix(1.00, 0.00, -0.00, -1.00, 48.0, 12.0)">G</text><text xml:space="preserve" font-family="AvenirNext-Medium" font-size="31.6" fill="#838686" transform="matrix(1.00, 0.00, -0.00, -1.00, 72.6, 12.0)">e</text><text xml:space="preserve" font-family="AvenirNext-Medium" font-size="31.6" fill="#838686" transform="matrix(1.00, 0.00, -0.00, -1.00, 90.7, 12.0)">t</text><text xml:space="preserve" font-family="AvenirNext-Medium" font-size="31.6" fill="#838686" transform="matrix(1.00, 0.00, -0.00, -1.00, 101.1, 12.0)"> </text><text xml:space="preserve" font-family="AvenirNext-Medium" font-size="31.6" fill="#838686" transform="matrix(1.00, 0.00, -0.00, -1.00, 109.0, 12.0)">a</text><text xml:space="preserve" font-family="AvenirNext-Medium" font-size="31.6" fill="#838686" transform="matrix(1.00, 0.00, -0.00, -1.00, 126.2, 12.0)"> </text><text xml:space="preserve" font-family="AvenirNext-Medium" font-size="31.6" fill="#838686" transform="matrix(1.00, 0.00, -0.00, -1.00, 134.1, 12.0)">s</text><text xml:space="preserve" font-family="AvenirNext-Medium" font-size="31.6" fill="#838686" transform="matrix(1.00, 0.00, -0.00, -1.00, 148.1, 12.0)">m</text><text xml:space="preserve" font-family="AvenirNext-Medium" font-size="31.6" fill="#838686" transform="matrix(1.00, 0.00, -0.00, -1.00, 176.2, 12.0)">a</text><text xml:space="preserve" font-family="AvenirNext-Medium" font-size="31.6" fill="#838686" transform="matrix(1.00, 0.00, -0.00, -1.00, 193.3, 12.0)">l</text><text xml:space="preserve" font-family="AvenirNext-Medium" font-size="31.6" fill="#838686" transform="matrix(1.00, 0.00, -0.00, -1.00, 201.5, 12.0)">l</text><text xml:space="preserve" font-family="AvenirNext-Medium" font-size="31.6" fill="#838686" transform="matrix(1.00, 0.00, -0.00, -1.00, 209.7, 12.0)"> </text><text xml:space="preserve" font-family="AvenirNext-Medium" font-size="31.6" fill="#838686" transform="matrix(1.00, 0.00, -0.00, -1.00, 217.6, 12.0)">b</text><text xml:space="preserve" font-family="AvenirNext-Medium" font-size="31.6" fill="#838686" transform="matrix(1.00, 0.00, -0.00, -1.00, 237.8, 12.0)">l</text><text xml:space="preserve" font-family="AvenirNext-Medium" font-size="31.6" fill="#838686" transform="matrix(1.00, 0.00, -0.00, -1.00, 246.0, 12.0)">o</text><text xml:space="preserve" font-family="AvenirNext-Medium" font-size="31.6" fill="#838686" transform="matrix(1.00, 0.00, -0.00, -1.00, 265.3, 12.0)">c</text><text xml:space="preserve" font-family="AvenirNext-Medium" font-size="31.6" fill="#838686" transform="matrix(1.00, 0.00, -0.00, -1.00, 280.9, 12.0)">k</text></g></svg>