<?xml version="1.0" encoding="UTF-8" standalone="no"?><svg xmlns="http://www.w3.org/2000/svg" xmlns:xlink="http://www.w3.org/1999/xlink" clip-rule="evenodd" stroke-miterlimit="4.00" viewBox="0 0 133 45"><desc>SVG generated by Keynote</desc><defs></defs><g transform="matrix(1.00, 0.00, -0.00, -1.00, 0.0, 45.0)"><text xml:space="preserve" font-family="AvenirNext-Medium" font-size="31.6" fill="#838686" transform="matrix(1.00, 0.00, -0.00, -1.00, 0.0, 12.5)">B</text><text xml:space="preserve" font-family="AvenirNext-Medium" font-size="31.6" fill="#838686" transform="matrix(1.00, 0.00, -0.00, -1.00, 20.3, 12.5)">.</text><text xml:space="preserve" font-family="AvenirNext-Medium" font-size="31.6" fill="#838686" transform="matrix(1.00, 0.00, -0.00, -1.00, 48.0, 12.0)">T</text><text xml:space="preserve" font-family="AvenirNext-Medium" font-size="31.6" fill="#838686" transform="matrix(1.00, 0.00, -0.00, -1.00, 63.0, 12.0)">e</text><text xml:space="preserve" font-family="AvenirNext-Medium" font-size="31.6" fill="#838686" transform="matrix(1.00, 0.00, -0.00, -1.00, 81.1, 12.0)">s</text><text xml:space="preserve" font-family="AvenirNext-Medium" font-size="31.6" fill="#838686" transform="matrix(1.00, 0.00, -0.00, -1.00, 95.1, 12.0)">t</text><text xml:space="preserve" font-family="AvenirNext-Medium" font-size="31.6" fill="#838686" transform="matrix(1.00, 0.00, -0.00, -1.00, 105.5, 12.0)"> </text><text xml:space="preserve" font-family="AvenirNext-Medium" font-size="31.6" fill="#838686" transform="matrix(1.00, 0.00, -0.00, -1.00, 113.4, 12.0)">i</text><text xml:space="preserve" font-family="AvenirNext-Medium" font-size="31.6" fill="#838686" transform="matrix(1.00, 0.00, -0.00, -1.00, 121.6, 12.0)">t</text></g></svg>