<?xml version="1.0" encoding="UTF-8" standalone="no"?><svg xmlns="http://www.w3.org/2000/svg" xmlns:xlink="http://www.w3.org/1999/xlink" clip-rule="evenodd" stroke-miterlimit="4.00" viewBox="0 0 1024 768"><desc>SVG generated by Keynote</desc><defs></defs><g transform="matrix(1.00, 0.00, -0.00, -1.00, 0.0, 768.0)"><path d="M 0.0 768.0 L 1024.0 768.0 L 1024.0 0.0 L 0.0 0.0 Z M 0.0 768.0 " fill="#212121"></path><path d="M 0.0 0.0 L 960.0 0.0 " fill="none" stroke="#A6AAA9" stroke-width="2.00" transform="matrix(1.00, 0.00, 0.00, -1.00, 32.0, 689.8)"></path><text xml:space="preserve" font-family="DINAlternate-Bold" font-weight="bold" font-size="24.0" fill="#838686" transform="matrix(1.00, 0.00, -0.00, -1.00, 36.0, 705.0)">T</text><text xml:space="preserve" font-family="DINAlternate-Bold" font-weight="bold" font-size="24.0" fill="#838686" transform="matrix(1.00, 0.00, -0.00, -1.00, 49.2, 705.0)">E</text><text xml:space="preserve" font-family="DINAlternate-Bold" font-weight="bold" font-size="24.0" fill="#838686" transform="matrix(1.00, 0.00, -0.00, -1.00, 63.7, 705.0)">S</text><text xml:space="preserve" font-family="DINAlternate-Bold" font-weight="bold" font-size="24.0" fill="#838686" transform="matrix(1.00, 0.00, -0.00, -1.00, 78.7, 705.0)">T</text><text xml:space="preserve" font-family="DINAlternate-Bold" font-weight="bold" font-size="24.0" fill="#838686" transform="matrix(1.00, 0.00, -0.00, -1.00, 91.9, 705.0)"> </text><text xml:space="preserve" font-family="DINAlternate-Bold" font-weight="bold" font-size="24.0" fill="#838686" transform="matrix(1.00, 0.00, -0.00, -1.00, 98.9, 705.0)">D</text><text xml:space="preserve" font-family="DINAlternate-Bold" font-weight="bold" font-size="24.0" fill="#838686" transform="matrix(1.00, 0.00, -0.00, -1.00, 115.2, 705.0)">E</text><text xml:space="preserve" font-family="DINAlternate-Bold" font-weight="bold" font-size="24.0" fill="#838686" transform="matrix(1.00, 0.00, -0.00, -1.00, 129.7, 705.0)">S</text><text xml:space="preserve" font-family="DINAlternate-Bold" font-weight="bold" font-size="24.0" fill="#838686" transform="matrix(1.00, 0.00, -0.00, -1.00, 144.7, 705.0)">I</text><text xml:space="preserve" font-family="DINAlternate-Bold" font-weight="bold" font-size="24.0" fill="#838686" transform="matrix(1.00, 0.00, -0.00, -1.00, 152.1, 705.0)">G</text><text xml:space="preserve" font-family="DINAlternate-Bold" font-weight="bold" font-size="24.0" fill="#838686" transform="matrix(1.00, 0.00, -0.00, -1.00, 167.9, 705.0)">N</text><text xml:space="preserve" font-family="DINCondensed-Bold" font-weight="bold" font-size="48.0" fill="#34A4DA" transform="matrix(1.00, 0.00, -0.00, -1.00, 36.0, 608.0)">L</text><text xml:space="preserve" font-family="DINCondensed-Bold" font-weight="bold" font-size="48.0" fill="#34A4DA" transform="matrix(1.00, 0.00, -0.00, -1.00, 53.8, 608.0)">E</text><text xml:space="preserve" font-family="DINCondensed-Bold" font-weight="bold" font-size="48.0" fill="#34A4DA" transform="matrix(1.00, 0.00, -0.00, -1.00, 71.5, 608.0)">V</text><text xml:space="preserve" font-family="DINCondensed-Bold" font-weight="bold" font-size="48.0" fill="#34A4DA" transform="matrix(1.00, 0.00, -0.00, -1.00, 91.1, 608.0)">E</text><text xml:space="preserve" font-family="DINCondensed-Bold" font-weight="bold" font-size="48.0" fill="#34A4DA" transform="matrix(1.00, 0.00, -0.00, -1.00, 108.8, 608.0)">L</text><text xml:space="preserve" font-family="DINCondensed-Bold" font-weight="bold" font-size="48.0" fill="#34A4DA" transform="matrix(1.00, 0.00, -0.00, -1.00, 126.6, 608.0)">S</text><text xml:space="preserve" font-family="DINCondensed-Bold" font-weight="bold" font-size="48.0" fill="#34A4DA" transform="matrix(1.00, 0.00, -0.00, -1.00, 146.1, 608.0)"> </text><text xml:space="preserve" font-family="DINCondensed-Bold" font-weight="bold" font-size="48.0" fill="#34A4DA" transform="matrix(1.00, 0.00, -0.00, -1.00, 155.0, 608.0)">O</text><text xml:space="preserve" font-family="DINCondensed-Bold" font-weight="bold" font-size="48.0" fill="#34A4DA" transform="matrix(1.00, 0.00, -0.00, -1.00, 175.4, 608.0)">F</text><text xml:space="preserve" font-family="DINCondensed-Bold" font-weight="bold" font-size="48.0" fill="#34A4DA" transform="matrix(1.00, 0.00, -0.00, -1.00, 193.2, 608.0)"> </text><text xml:space="preserve" font-family="DINCondensed-Bold" font-weight="bold" font-size="48.0" fill="#34A4DA" transform="matrix(1.00, 0.00, -0.00, -1.00, 202.1, 608.0)">T</text><text xml:space="preserve" font-family="DINCondensed-Bold" font-weight="bold" font-size="48.0" fill="#34A4DA" transform="matrix(1.00, 0.00, -0.00, -1.00, 218.1, 608.0)">E</text><text xml:space="preserve" font-family="DINCondensed-Bold" font-weight="bold" font-size="48.0" fill="#34A4DA" transform="matrix(1.00, 0.00, -0.00, -1.00, 235.8, 608.0)">S</text><text xml:space="preserve" font-family="DINCondensed-Bold" font-weight="bold" font-size="48.0" fill="#34A4DA" transform="matrix(1.00, 0.00, -0.00, -1.00, 255.3, 608.0)">T</text><text xml:space="preserve" font-family="DINCondensed-Bold" font-weight="bold" font-size="48.0" fill="#34A4DA" transform="matrix(1.00, 0.00, -0.00, -1.00, 271.2, 608.0)">I</text><text xml:space="preserve" font-family="DINCondensed-Bold" font-weight="bold" font-size="48.0" fill="#34A4DA" transform="matrix(1.00, 0.00, -0.00, -1.00, 281.0, 608.0)">N</text><text xml:space="preserve" font-family="DINCondensed-Bold" font-weight="bold" font-size="48.0" fill="#34A4DA" transform="matrix(1.00, 0.00, -0.00, -1.00, 302.4, 608.0)">G</text><text xml:space="preserve" font-family="DINCondensed-Bold" font-weight="bold" font-size="48.0" fill="#34A4DA" transform="matrix(1.00, 0.00, -0.00, -1.00, 322.8, 608.0)"> </text><text xml:space="preserve" font-family="DINCondensed-Bold" font-weight="bold" font-size="48.0" fill="#34A4DA" transform="matrix(1.00, 0.00, -0.00, -1.00, 331.7, 608.0)">(</text><text xml:space="preserve" font-family="DINCondensed-Bold" font-weight="bold" font-size="48.0" fill="#34A4DA" transform="matrix(1.00, 0.00, -0.00, -1.00, 342.4, 608.0)">P</text><text xml:space="preserve" font-family="DINCondensed-Bold" font-weight="bold" font-size="48.0" fill="#34A4DA" transform="matrix(1.00, 0.00, -0.00, -1.00, 361.9, 608.0)">R</text><text xml:space="preserve" font-family="DINCondensed-Bold" font-weight="bold" font-size="48.0" fill="#34A4DA" transform="matrix(1.00, 0.00, -0.00, -1.00, 382.4, 608.0)">A</text><text xml:space="preserve" font-family="DINCondensed-Bold" font-weight="bold" font-size="48.0" fill="#34A4DA" transform="matrix(1.00, 0.00, -0.00, -1.00, 401.9, 608.0)">C</text><text xml:space="preserve" font-family="DINCondensed-Bold" font-weight="bold" font-size="48.0" fill="#34A4DA" transform="matrix(1.00, 0.00, -0.00, -1.00, 421.4, 608.0)">T</text><text xml:space="preserve" font-family="DINCondensed-Bold" font-weight="bold" font-size="48.0" fill="#34A4DA" transform="matrix(1.00, 0.00, -0.00, -1.00, 437.4, 608.0)">I</text><text xml:space="preserve" font-family="DINCondensed-Bold" font-weight="bold" font-size="48.0" fill="#34A4DA" transform="matrix(1.00, 0.00, -0.00, -1.00, 447.2, 608.0)">C</text><text xml:space="preserve" font-family="DINCondensed-Bold" font-weight="bold" font-size="48.0" fill="#34A4DA" transform="matrix(1.00, 0.00, -0.00, -1.00, 466.7, 608.0)">A</text><text xml:space="preserve" font-family="DINCondensed-Bold" font-weight="bold" font-size="48.0" fill="#34A4DA" transform="matrix(1.00, 0.00, -0.00, -1.00, 486.2, 608.0)">L</text><text xml:space="preserve" font-family="DINCondensed-Bold" font-weight="bold" font-size="48.0" fill="#34A4DA" transform="matrix(1.00, 0.00, -0.00, -1.00, 504.0, 608.0)">)</text><text xml:space="preserve" font-family="LucidaGrande" font-size="33.2" fill="#34A4DA" transform="matrix(1.00, 0.00, -0.00, -1.00, 36.0, 513.5)">▸</text><text xml:space="preserve" font-family="AvenirNext-Medium" font-size="31.6" fill="#838686" transform="matrix(1.00, 0.00, -0.00, -1.00, 69.0, 516.0)">I</text><text xml:space="preserve" font-family="AvenirNext-Medium" font-size="31.6" fill="#838686" transform="matrix(1.00, 0.00, -0.00, -1.00, 77.6, 516.0)">t</text><text xml:space="preserve" font-family="AvenirNext-Medium" font-size="31.6" fill="#838686" transform="matrix(1.00, 0.00, -0.00, -1.00, 88.0, 516.0)">'</text><text xml:space="preserve" font-family="AvenirNext-Medium" font-size="31.6" fill="#838686" transform="matrix(1.00, 0.00, -0.00, -1.00, 96.3, 516.0)">s</text><text xml:space="preserve" font-family="AvenirNext-Medium" font-size="31.6" fill="#838686" transform="matrix(1.00, 0.00, -0.00, -1.00, 110.3, 516.0)"> </text><text xml:space="preserve" font-family="AvenirNext-Medium" font-size="31.6" fill="#838686" transform="matrix(1.00, 0.00, -0.00, -1.00, 118.2, 516.0)">r</text><text xml:space="preserve" font-family="AvenirNext-Medium" font-size="31.6" fill="#838686" transform="matrix(1.00, 0.00, -0.00, -1.00, 129.1, 516.0)">e</text><text xml:space="preserve" font-family="AvenirNext-Medium" font-size="31.6" fill="#838686" transform="matrix(1.00, 0.00, -0.00, -1.00, 147.2, 516.0)">l</text><text xml:space="preserve" font-family="AvenirNext-Medium" font-size="31.6" fill="#838686" transform="matrix(1.00, 0.00, -0.00, -1.00, 155.4, 516.0)">a</text><text xml:space="preserve" font-family="AvenirNext-Medium" font-size="31.6" fill="#838686" transform="matrix(1.00, 0.00, -0.00, -1.00, 172.2, 516.0)">t</text><text xml:space="preserve" font-family="AvenirNext-Medium" font-size="31.6" fill="#838686" transform="matrix(1.00, 0.00, -0.00, -1.00, 182.6, 516.0)">i</text><text xml:space="preserve" font-family="AvenirNext-Medium" font-size="31.6" fill="#838686" transform="matrix(1.00, 0.00, -0.00, -1.00, 190.8, 516.0)">v</text><text xml:space="preserve" font-family="AvenirNext-Medium" font-size="31.6" fill="#838686" transform="matrix(1.00, 0.00, -0.00, -1.00, 206.8, 516.0)">e</text><text xml:space="preserve" font-family="AvenirNext-Medium" font-size="31.6" fill="#838686" transform="matrix(1.00, 0.00, -0.00, -1.00, 224.9, 516.0)">.</text><text xml:space="preserve" font-family="AvenirNext-Medium" font-size="31.6" fill="#838686" transform="matrix(1.00, 0.00, -0.00, -1.00, 232.2, 516.0)"> </text><text xml:space="preserve" font-family="AvenirNext-Medium" font-size="31.6" fill="#838686" transform="matrix(1.00, 0.00, -0.00, -1.00, 239.3, 516.0)">Y</text><text xml:space="preserve" font-family="AvenirNext-Medium" font-size="31.6" fill="#838686" transform="matrix(1.00, 0.00, -0.00, -1.00, 256.1, 516.0)">o</text><text xml:space="preserve" font-family="AvenirNext-Medium" font-size="31.6" fill="#838686" transform="matrix(1.00, 0.00, -0.00, -1.00, 275.4, 516.0)">u</text><text xml:space="preserve" font-family="AvenirNext-Medium" font-size="31.6" fill="#838686" transform="matrix(1.00, 0.00, -0.00, -1.00, 293.8, 516.0)">r</text><text xml:space="preserve" font-family="AvenirNext-Medium" font-size="31.6" fill="#838686" transform="matrix(1.00, 0.00, -0.00, -1.00, 305.2, 516.0)"> </text><text xml:space="preserve" font-family="AvenirNext-Medium" font-size="31.6" fill="#838686" transform="matrix(1.00, 0.00, -0.00, -1.00, 313.1, 516.0)">u</text><text xml:space="preserve" font-family="AvenirNext-Medium" font-size="31.6" fill="#838686" transform="matrix(1.00, 0.00, -0.00, -1.00, 331.5, 516.0)">n</text><text xml:space="preserve" font-family="AvenirNext-Medium" font-size="31.6" fill="#838686" transform="matrix(1.00, 0.00, -0.00, -1.00, 349.9, 516.0)">i</text><text xml:space="preserve" font-family="AvenirNext-Medium" font-size="31.6" fill="#838686" transform="matrix(1.00, 0.00, -0.00, -1.00, 358.1, 516.0)">t</text><text xml:space="preserve" font-family="AvenirNext-Medium" font-size="31.6" fill="#838686" transform="matrix(1.00, 0.00, -0.00, -1.00, 368.5, 516.0)"> </text><text xml:space="preserve" font-family="AvenirNext-Medium" font-size="31.6" fill="#838686" transform="matrix(1.00, 0.00, -0.00, -1.00, 376.4, 516.0)">m</text><text xml:space="preserve" font-family="AvenirNext-Medium" font-size="31.6" fill="#838686" transform="matrix(1.00, 0.00, -0.00, -1.00, 404.5, 516.0)">i</text><text xml:space="preserve" font-family="AvenirNext-Medium" font-size="31.6" fill="#838686" transform="matrix(1.00, 0.00, -0.00, -1.00, 412.7, 516.0)">g</text><text xml:space="preserve" font-family="AvenirNext-Medium" font-size="31.6" fill="#838686" transform="matrix(1.00, 0.00, -0.00, -1.00, 432.7, 516.0)">h</text><text xml:space="preserve" font-family="AvenirNext-Medium" font-size="31.6" fill="#838686" transform="matrix(1.00, 0.00, -0.00, -1.00, 451.1, 516.0)">t</text><text xml:space="preserve" font-family="AvenirNext-Medium" font-size="31.6" fill="#838686" transform="matrix(1.00, 0.00, -0.00, -1.00, 461.5, 516.0)"> </text><text xml:space="preserve" font-family="AvenirNext-Medium" font-size="31.6" fill="#838686" transform="matrix(1.00, 0.00, -0.00, -1.00, 469.4, 516.0)">b</text><text xml:space="preserve" font-family="AvenirNext-Medium" font-size="31.6" fill="#838686" transform="matrix(1.00, 0.00, -0.00, -1.00, 489.5, 516.0)">e</text><text xml:space="preserve" font-family="AvenirNext-Medium" font-size="31.6" fill="#838686" transform="matrix(1.00, 0.00, -0.00, -1.00, 507.7, 516.0)"> </text><text xml:space="preserve" font-family="AvenirNext-Medium" font-size="31.6" fill="#838686" transform="matrix(1.00, 0.00, -0.00, -1.00, 515.6, 516.0)">s</text><text xml:space="preserve" font-family="AvenirNext-Medium" font-size="31.6" fill="#838686" transform="matrix(1.00, 0.00, -0.00, -1.00, 529.6, 516.0)">o</text><text xml:space="preserve" font-family="AvenirNext-Medium" font-size="31.6" fill="#838686" transform="matrix(1.00, 0.00, -0.00, -1.00, 548.9, 516.0)">m</text><text xml:space="preserve" font-family="AvenirNext-Medium" font-size="31.6" fill="#838686" transform="matrix(1.00, 0.00, -0.00, -1.00, 576.9, 516.0)">e</text><text xml:space="preserve" font-family="AvenirNext-Medium" font-size="31.6" fill="#838686" transform="matrix(1.00, 0.00, -0.00, -1.00, 595.1, 516.0)">o</text><text xml:space="preserve" font-family="AvenirNext-Medium" font-size="31.6" fill="#838686" transform="matrix(1.00, 0.00, -0.00, -1.00, 614.4, 516.0)">n</text><text xml:space="preserve" font-family="AvenirNext-Medium" font-size="31.6" fill="#838686" transform="matrix(1.00, 0.00, -0.00, -1.00, 632.8, 516.0)">e</text><text xml:space="preserve" font-family="AvenirNext-Medium" font-size="31.6" fill="#838686" transform="matrix(1.00, 0.00, -0.00, -1.00, 650.9, 516.0)"> </text><text xml:space="preserve" font-family="AvenirNext-Medium" font-size="31.6" fill="#838686" transform="matrix(1.00, 0.00, -0.00, -1.00, 658.8, 516.0)">e</text><text xml:space="preserve" font-family="AvenirNext-Medium" font-size="31.6" fill="#838686" transform="matrix(1.00, 0.00, -0.00, -1.00, 676.9, 516.0)">l</text><text xml:space="preserve" font-family="AvenirNext-Medium" font-size="31.6" fill="#838686" transform="matrix(1.00, 0.00, -0.00, -1.00, 685.1, 516.0)">s</text><text xml:space="preserve" font-family="AvenirNext-Medium" font-size="31.6" fill="#838686" transform="matrix(1.00, 0.00, -0.00, -1.00, 699.2, 516.0)">e</text><text xml:space="preserve" font-family="AvenirNext-Medium" font-size="31.6" fill="#838686" transform="matrix(1.00, 0.00, -0.00, -1.00, 717.3, 516.0)">'</text><text xml:space="preserve" font-family="AvenirNext-Medium" font-size="31.6" fill="#838686" transform="matrix(1.00, 0.00, -0.00, -1.00, 725.6, 516.0)">s</text><text xml:space="preserve" font-family="AvenirNext-Medium" font-size="31.6" fill="#838686" transform="matrix(1.00, 0.00, -0.00, -1.00, 739.6, 516.0)"> </text><text xml:space="preserve" font-family="AvenirNext-Medium" font-size="31.6" fill="#838686" transform="matrix(1.00, 0.00, -0.00, -1.00, 747.5, 516.0)">c</text><text xml:space="preserve" font-family="AvenirNext-Medium" font-size="31.6" fill="#838686" transform="matrix(1.00, 0.00, -0.00, -1.00, 763.1, 516.0)">o</text><text xml:space="preserve" font-family="AvenirNext-Medium" font-size="31.6" fill="#838686" transform="matrix(1.00, 0.00, -0.00, -1.00, 782.4, 516.0)">m</text><text xml:space="preserve" font-family="AvenirNext-Medium" font-size="31.6" fill="#838686" transform="matrix(1.00, 0.00, -0.00, -1.00, 810.5, 516.0)">p</text><text xml:space="preserve" font-family="AvenirNext-Medium" font-size="31.6" fill="#838686" transform="matrix(1.00, 0.00, -0.00, -1.00, 830.5, 516.0)">o</text><text xml:space="preserve" font-family="AvenirNext-Medium" font-size="31.6" fill="#838686" transform="matrix(1.00, 0.00, -0.00, -1.00, 849.8, 516.0)">n</text><text xml:space="preserve" font-family="AvenirNext-Medium" font-size="31.6" fill="#838686" transform="matrix(1.00, 0.00, -0.00, -1.00, 868.2, 516.0)">e</text><text xml:space="preserve" font-family="AvenirNext-Medium" font-size="31.6" fill="#838686" transform="matrix(1.00, 0.00, -0.00, -1.00, 886.3, 516.0)">n</text><text xml:space="preserve" font-family="AvenirNext-Medium" font-size="31.6" fill="#838686" transform="matrix(1.00, 0.00, -0.00, -1.00, 904.7, 516.0)">t</text><text xml:space="preserve" font-family="AvenirNext-Medium" font-size="31.6" fill="#838686" transform="matrix(1.00, 0.00, -0.00, -1.00, 915.1, 516.0)">.</text><text xml:space="preserve" font-family="LucidaGrande" font-size="33.2" fill="#34A4DA" transform="matrix(1.00, 0.00, -0.00, -1.00, 36.0, 443.5)">▸</text><text xml:space="preserve" font-family="AvenirNext-Medium" font-size="31.6" fill="#838686" transform="matrix(1.00, 0.00, -0.00, -1.00, 69.0, 446.0)">S</text><text xml:space="preserve" font-family="AvenirNext-Medium" font-size="31.6" fill="#838686" transform="matrix(1.00, 0.00, -0.00, -1.00, 87.0, 446.0)">o</text><text xml:space="preserve" font-family="AvenirNext-Medium" font-size="31.6" fill="#838686" transform="matrix(1.00, 0.00, -0.00, -1.00, 105.9, 446.0)">,</text><text xml:space="preserve" font-family="AvenirNext-Medium" font-size="31.6" fill="#838686" transform="matrix(1.00, 0.00, -0.00, -1.00, 113.2, 446.0)"> </text><text xml:space="preserve" font-family="AvenirNext-Medium" font-size="31.6" fill="#838686" transform="matrix(1.00, 0.00, -0.00, -1.00, 121.1, 446.0)">b</text><text xml:space="preserve" font-family="AvenirNext-Medium" font-size="31.6" fill="#838686" transform="matrix(1.00, 0.00, -0.00, -1.00, 141.2, 446.0)">a</text><text xml:space="preserve" font-family="AvenirNext-Medium" font-size="31.6" fill="#838686" transform="matrix(1.00, 0.00, -0.00, -1.00, 158.3, 446.0)">s</text><text xml:space="preserve" font-family="AvenirNext-Medium" font-size="31.6" fill="#838686" transform="matrix(1.00, 0.00, -0.00, -1.00, 172.4, 446.0)">i</text><text xml:space="preserve" font-family="AvenirNext-Medium" font-size="31.6" fill="#838686" transform="matrix(1.00, 0.00, -0.00, -1.00, 180.6, 446.0)">c</text><text xml:space="preserve" font-family="AvenirNext-Medium" font-size="31.6" fill="#838686" transform="matrix(1.00, 0.00, -0.00, -1.00, 196.2, 446.0)">a</text><text xml:space="preserve" font-family="AvenirNext-Medium" font-size="31.6" fill="#838686" transform="matrix(1.00, 0.00, -0.00, -1.00, 213.3, 446.0)">l</text><text xml:space="preserve" font-family="AvenirNext-Medium" font-size="31.6" fill="#838686" transform="matrix(1.00, 0.00, -0.00, -1.00, 221.5, 446.0)">l</text><text xml:space="preserve" font-family="AvenirNext-Medium" font-size="31.6" fill="#838686" transform="matrix(1.00, 0.00, -0.00, -1.00, 229.8, 446.0)">y</text><text xml:space="preserve" font-family="AvenirNext-Medium" font-size="31.6" fill="#838686" transform="matrix(1.00, 0.00, -0.00, -1.00, 244.6, 446.0)">,</text><text xml:space="preserve" font-family="AvenirNext-Medium" font-size="31.6" fill="#838686" transform="matrix(1.00, 0.00, -0.00, -1.00, 251.8, 446.0)"> </text><text xml:space="preserve" font-family="AvenirNext-Medium" font-size="31.6" fill="#838686" transform="matrix(1.00, 0.00, -0.00, -1.00, 259.7, 446.0)">i</text><text xml:space="preserve" font-family="AvenirNext-Medium" font-size="31.6" fill="#838686" transform="matrix(1.00, 0.00, -0.00, -1.00, 267.9, 446.0)">t</text><text xml:space="preserve" font-family="AvenirNext-Medium" font-size="31.6" fill="#838686" transform="matrix(1.00, 0.00, -0.00, -1.00, 278.3, 446.0)"> </text><text xml:space="preserve" font-family="AvenirNext-Medium" font-size="31.6" fill="#838686" transform="matrix(1.00, 0.00, -0.00, -1.00, 286.2, 446.0)">g</text><text xml:space="preserve" font-family="AvenirNext-Medium" font-size="31.6" fill="#838686" transform="matrix(1.00, 0.00, -0.00, -1.00, 306.2, 446.0)">e</text><text xml:space="preserve" font-family="AvenirNext-Medium" font-size="31.6" fill="#838686" transform="matrix(1.00, 0.00, -0.00, -1.00, 324.3, 446.0)">t</text><text xml:space="preserve" font-family="AvenirNext-Medium" font-size="31.6" fill="#838686" transform="matrix(1.00, 0.00, -0.00, -1.00, 334.7, 446.0)">s</text><text xml:space="preserve" font-family="AvenirNext-Medium" font-size="31.6" fill="#838686" transform="matrix(1.00, 0.00, -0.00, -1.00, 348.8, 446.0)"> </text><text xml:space="preserve" font-family="AvenirNext-Medium" font-size="31.6" fill="#838686" transform="matrix(1.00, 0.00, -0.00, -1.00, 356.7, 446.0)">d</text><text xml:space="preserve" font-family="AvenirNext-Medium" font-size="31.6" fill="#838686" transform="matrix(1.00, 0.00, -0.00, -1.00, 376.8, 446.0)">o</text><text xml:space="preserve" font-family="AvenirNext-Medium" font-size="31.6" fill="#838686" transform="matrix(1.00, 0.00, -0.00, -1.00, 396.0, 446.0)">w</text><text xml:space="preserve" font-family="AvenirNext-Medium" font-size="31.6" fill="#838686" transform="matrix(1.00, 0.00, -0.00, -1.00, 420.5, 446.0)">n</text><text xml:space="preserve" font-family="AvenirNext-Medium" font-size="31.6" fill="#838686" transform="matrix(1.00, 0.00, -0.00, -1.00, 438.9, 446.0)"> </text><text xml:space="preserve" font-family="AvenirNext-Medium" font-size="31.6" fill="#838686" transform="matrix(1.00, 0.00, -0.00, -1.00, 446.8, 446.0)">t</text><text xml:space="preserve" font-family="AvenirNext-Medium" font-size="31.6" fill="#838686" transform="matrix(1.00, 0.00, -0.00, -1.00, 457.2, 446.0)">o</text><text xml:space="preserve" font-family="AvenirNext-Medium" font-size="31.6" fill="#838686" transform="matrix(1.00, 0.00, -0.00, -1.00, 476.5, 446.0)"> </text><text xml:space="preserve" font-family="AvenirNext-Medium" font-size="31.6" fill="#838686" transform="matrix(1.00, 0.00, -0.00, -1.00, 484.4, 446.0)">i</text><text xml:space="preserve" font-family="AvenirNext-Medium" font-size="31.6" fill="#838686" transform="matrix(1.00, 0.00, -0.00, -1.00, 492.6, 446.0)">n</text><text xml:space="preserve" font-family="AvenirNext-Medium" font-size="31.6" fill="#838686" transform="matrix(1.00, 0.00, -0.00, -1.00, 511.0, 446.0)">d</text><text xml:space="preserve" font-family="AvenirNext-Medium" font-size="31.6" fill="#838686" transform="matrix(1.00, 0.00, -0.00, -1.00, 531.1, 446.0)">u</text><text xml:space="preserve" font-family="AvenirNext-Medium" font-size="31.6" fill="#838686" transform="matrix(1.00, 0.00, -0.00, -1.00, 549.5, 446.0)">c</text><text xml:space="preserve" font-family="AvenirNext-Medium" font-size="31.6" fill="#838686" transform="matrix(1.00, 0.00, -0.00, -1.00, 565.1, 446.0)">t</text><text xml:space="preserve" font-family="AvenirNext-Medium" font-size="31.6" fill="#838686" transform="matrix(1.00, 0.00, -0.00, -1.00, 575.5, 446.0)">i</text><text xml:space="preserve" font-family="AvenirNext-Medium" font-size="31.6" fill="#838686" transform="matrix(1.00, 0.00, -0.00, -1.00, 583.7, 446.0)">o</text><text xml:space="preserve" font-family="AvenirNext-Medium" font-size="31.6" fill="#838686" transform="matrix(1.00, 0.00, -0.00, -1.00, 603.0, 446.0)">n</text><text xml:space="preserve" font-family="AvenirNext-Medium" font-size="31.6" fill="#838686" transform="matrix(1.00, 0.00, -0.00, -1.00, 621.4, 446.0)">:</text><text xml:space="preserve" font-family="AvenirNext-Medium" font-size="31.6" fill="#838686" transform="matrix(1.00, 0.00, -0.00, -1.00, 88.0, 375.5)">A</text><text xml:space="preserve" font-family="AvenirNext-Medium" font-size="31.6" fill="#838686" transform="matrix(1.00, 0.00, -0.00, -1.00, 110.5, 375.5)">.</text><text xml:space="preserve" font-family="AvenirNext-Medium" font-size="31.6" fill="#838686" transform="matrix(1.00, 0.00, -0.00, -1.00, 136.0, 375.0)">G</text><text xml:space="preserve" font-family="AvenirNext-Medium" font-size="31.6" fill="#838686" transform="matrix(1.00, 0.00, -0.00, -1.00, 160.6, 375.0)">e</text><text xml:space="preserve" font-family="AvenirNext-Medium" font-size="31.6" fill="#838686" transform="matrix(1.00, 0.00, -0.00, -1.00, 178.7, 375.0)">t</text><text xml:space="preserve" font-family="AvenirNext-Medium" font-size="31.6" fill="#838686" transform="matrix(1.00, 0.00, -0.00, -1.00, 189.1, 375.0)"> </text><text xml:space="preserve" font-family="AvenirNext-Medium" font-size="31.6" fill="#838686" transform="matrix(1.00, 0.00, -0.00, -1.00, 197.0, 375.0)">a</text><text xml:space="preserve" font-family="AvenirNext-Medium" font-size="31.6" fill="#838686" transform="matrix(1.00, 0.00, -0.00, -1.00, 214.2, 375.0)"> </text><text xml:space="preserve" font-family="AvenirNext-Medium" font-size="31.6" fill="#838686" transform="matrix(1.00, 0.00, -0.00, -1.00, 222.1, 375.0)">s</text><text xml:space="preserve" font-family="AvenirNext-Medium" font-size="31.6" fill="#838686" transform="matrix(1.00, 0.00, -0.00, -1.00, 236.1, 375.0)">m</text><text xml:space="preserve" font-family="AvenirNext-Medium" font-size="31.6" fill="#838686" transform="matrix(1.00, 0.00, -0.00, -1.00, 264.2, 375.0)">a</text><text xml:space="preserve" font-family="AvenirNext-Medium" font-size="31.6" fill="#838686" transform="matrix(1.00, 0.00, -0.00, -1.00, 281.3, 375.0)">l</text><text xml:space="preserve" font-family="AvenirNext-Medium" font-size="31.6" fill="#838686" transform="matrix(1.00, 0.00, -0.00, -1.00, 289.5, 375.0)">l</text><text xml:space="preserve" font-family="AvenirNext-Medium" font-size="31.6" fill="#838686" transform="matrix(1.00, 0.00, -0.00, -1.00, 297.7, 375.0)"> </text><text xml:space="preserve" font-family="AvenirNext-Medium" font-size="31.6" fill="#838686" transform="matrix(1.00, 0.00, -0.00, -1.00, 305.6, 375.0)">b</text><text xml:space="preserve" font-family="AvenirNext-Medium" font-size="31.6" fill="#838686" transform="matrix(1.00, 0.00, -0.00, -1.00, 325.8, 375.0)">l</text><text xml:space="preserve" font-family="AvenirNext-Medium" font-size="31.6" fill="#838686" transform="matrix(1.00, 0.00, -0.00, -1.00, 334.0, 375.0)">o</text><text xml:space="preserve" font-family="AvenirNext-Medium" font-size="31.6" fill="#838686" transform="matrix(1.00, 0.00, -0.00, -1.00, 353.3, 375.0)">c</text><text xml:space="preserve" font-family="AvenirNext-Medium" font-size="31.6" fill="#838686" transform="matrix(1.00, 0.00, -0.00, -1.00, 368.9, 375.0)">k</text><text xml:space="preserve" font-family="AvenirNext-Medium" font-size="31.6" fill="#838686" transform="matrix(1.00, 0.00, -0.00, -1.00, 88.0, 305.5)">B</text><text xml:space="preserve" font-family="AvenirNext-Medium" font-size="31.6" fill="#838686" transform="matrix(1.00, 0.00, -0.00, -1.00, 108.3, 305.5)">.</text><text xml:space="preserve" font-family="AvenirNext-Medium" font-size="31.6" fill="#838686" transform="matrix(1.00, 0.00, -0.00, -1.00, 136.0, 305.0)">T</text><text xml:space="preserve" font-family="AvenirNext-Medium" font-size="31.6" fill="#838686" transform="matrix(1.00, 0.00, -0.00, -1.00, 151.0, 305.0)">e</text><text xml:space="preserve" font-family="AvenirNext-Medium" font-size="31.6" fill="#838686" transform="matrix(1.00, 0.00, -0.00, -1.00, 169.1, 305.0)">s</text><text xml:space="preserve" font-family="AvenirNext-Medium" font-size="31.6" fill="#838686" transform="matrix(1.00, 0.00, -0.00, -1.00, 183.1, 305.0)">t</text><text xml:space="preserve" font-family="AvenirNext-Medium" font-size="31.6" fill="#838686" transform="matrix(1.00, 0.00, -0.00, -1.00, 193.5, 305.0)"> </text><text xml:space="preserve" font-family="AvenirNext-Medium" font-size="31.6" fill="#838686" transform="matrix(1.00, 0.00, -0.00, -1.00, 201.4, 305.0)">i</text><text xml:space="preserve" font-family="AvenirNext-Medium" font-size="31.6" fill="#838686" transform="matrix(1.00, 0.00, -0.00, -1.00, 209.6, 305.0)">t</text><text xml:space="preserve" font-family="AvenirNext-Medium" font-size="31.6" fill="#838686" transform="matrix(1.00, 0.00, -0.00, -1.00, 88.0, 235.4)">C</text><text xml:space="preserve" font-family="AvenirNext-Medium" font-size="31.6" fill="#838686" transform="matrix(1.00, 0.00, -0.00, -1.00, 110.4, 235.4)">.</text><text xml:space="preserve" font-family="AvenirNext-Medium" font-size="31.6" fill="#838686" transform="matrix(1.00, 0.00, -0.00, -1.00, 136.0, 235.0)">C</text><text xml:space="preserve" font-family="AvenirNext-Medium" font-size="31.6" fill="#838686" transform="matrix(1.00, 0.00, -0.00, -1.00, 158.0, 235.0)">o</text><text xml:space="preserve" font-family="AvenirNext-Medium" font-size="31.6" fill="#838686" transform="matrix(1.00, 0.00, -0.00, -1.00, 177.3, 235.0)">m</text><text xml:space="preserve" font-family="AvenirNext-Medium" font-size="31.6" fill="#838686" transform="matrix(1.00, 0.00, -0.00, -1.00, 205.3, 235.0)">b</text><text xml:space="preserve" font-family="AvenirNext-Medium" font-size="31.6" fill="#838686" transform="matrix(1.00, 0.00, -0.00, -1.00, 225.5, 235.0)">i</text><text xml:space="preserve" font-family="AvenirNext-Medium" font-size="31.6" fill="#838686" transform="matrix(1.00, 0.00, -0.00, -1.00, 233.6, 235.0)">n</text><text xml:space="preserve" font-family="AvenirNext-Medium" font-size="31.6" fill="#838686" transform="matrix(1.00, 0.00, -0.00, -1.00, 252.0, 235.0)">e</text><text xml:space="preserve" font-family="AvenirNext-Medium" font-size="31.6" fill="#838686" transform="matrix(1.00, 0.00, -0.00, -1.00, 270.2, 235.0)"> </text><text xml:space="preserve" font-family="AvenirNext-Medium" font-size="31.6" fill="#838686" transform="matrix(1.00, 0.00, -0.00, -1.00, 278.1, 235.0)">f</text><text xml:space="preserve" font-family="AvenirNext-Medium" font-size="31.6" fill="#838686" transform="matrix(1.00, 0.00, -0.00, -1.00, 287.9, 235.0)">e</text><text xml:space="preserve" font-family="AvenirNext-Medium" font-size="31.6" fill="#838686" transform="matrix(1.00, 0.00, -0.00, -1.00, 306.0, 235.0)">w</text><text xml:space="preserve" font-family="AvenirNext-Medium" font-size="31.6" fill="#838686" transform="matrix(1.00, 0.00, -0.00, -1.00, 330.4, 235.0)"> </text><text xml:space="preserve" font-family="AvenirNext-Medium" font-size="31.6" fill="#838686" transform="matrix(1.00, 0.00, -0.00, -1.00, 338.3, 235.0)">t</text><text xml:space="preserve" font-family="AvenirNext-Medium" font-size="31.6" fill="#838686" transform="matrix(1.00, 0.00, -0.00, -1.00, 348.7, 235.0)">e</text><text xml:space="preserve" font-family="AvenirNext-Medium" font-size="31.6" fill="#838686" transform="matrix(1.00, 0.00, -0.00, -1.00, 366.9, 235.0)">s</text><text xml:space="preserve" font-family="AvenirNext-Medium" font-size="31.6" fill="#838686" transform="matrix(1.00, 0.00, -0.00, -1.00, 380.9, 235.0)">t</text><text xml:space="preserve" font-family="AvenirNext-Medium" font-size="31.6" fill="#838686" transform="matrix(1.00, 0.00, -0.00, -1.00, 391.3, 235.0)">e</text><text xml:space="preserve" font-family="AvenirNext-Medium" font-size="31.6" fill="#838686" transform="matrix(1.00, 0.00, -0.00, -1.00, 409.4, 235.0)">d</text><text xml:space="preserve" font-family="AvenirNext-Medium" font-size="31.6" fill="#838686" transform="matrix(1.00, 0.00, -0.00, -1.00, 429.5, 235.0)"> </text><text xml:space="preserve" font-family="AvenirNext-Medium" font-size="31.6" fill="#838686" transform="matrix(1.00, 0.00, -0.00, -1.00, 437.4, 235.0)">b</text><text xml:space="preserve" font-family="AvenirNext-Medium" font-size="31.6" fill="#838686" transform="matrix(1.00, 0.00, -0.00, -1.00, 457.5, 235.0)">l</text><text xml:space="preserve" font-family="AvenirNext-Medium" font-size="31.6" fill="#838686" transform="matrix(1.00, 0.00, -0.00, -1.00, 465.7, 235.0)">o</text><text xml:space="preserve" font-family="AvenirNext-Medium" font-size="31.6" fill="#838686" transform="matrix(1.00, 0.00, -0.00, -1.00, 485.0, 235.0)">c</text><text xml:space="preserve" font-family="AvenirNext-Medium" font-size="31.6" fill="#838686" transform="matrix(1.00, 0.00, -0.00, -1.00, 500.6, 235.0)">k</text><text xml:space="preserve" font-family="AvenirNext-Medium" font-size="31.6" fill="#838686" transform="matrix(1.00, 0.00, -0.00, -1.00, 517.1, 235.0)">s</text><text xml:space="preserve" font-family="AvenirNext-Medium" font-size="31.6" fill="#838686" transform="matrix(1.00, 0.00, -0.00, -1.00, 88.0, 165.4)">D</text><text xml:space="preserve" font-family="AvenirNext-Medium" font-size="31.6" fill="#838686" transform="matrix(1.00, 0.00, -0.00, -1.00, 110.5, 165.4)">.</text><text xml:space="preserve" font-family="AvenirNext-Medium" font-size="31.6" fill="#838686" transform="matrix(1.00, 0.00, -0.00, -1.00, 136.0, 165.0)">D</text><text xml:space="preserve" font-family="AvenirNext-Medium" font-size="31.6" fill="#838686" transform="matrix(1.00, 0.00, -0.00, -1.00, 160.1, 165.0)">o</text><text xml:space="preserve" font-family="AvenirNext-Medium" font-size="31.6" fill="#838686" transform="matrix(1.00, 0.00, -0.00, -1.00, 179.4, 165.0)"> </text><text xml:space="preserve" font-family="AvenirNext-Medium" font-size="31.6" fill="#838686" transform="matrix(1.00, 0.00, -0.00, -1.00, 187.3, 165.0)">i</text><text xml:space="preserve" font-family="AvenirNext-Medium" font-size="31.6" fill="#838686" transform="matrix(1.00, 0.00, -0.00, -1.00, 195.4, 165.0)">n</text><text xml:space="preserve" font-family="AvenirNext-Medium" font-size="31.6" fill="#838686" transform="matrix(1.00, 0.00, -0.00, -1.00, 213.8, 165.0)">t</text><text xml:space="preserve" font-family="AvenirNext-Medium" font-size="31.6" fill="#838686" transform="matrix(1.00, 0.00, -0.00, -1.00, 224.3, 165.0)">e</text><text xml:space="preserve" font-family="AvenirNext-Medium" font-size="31.6" fill="#838686" transform="matrix(1.00, 0.00, -0.00, -1.00, 242.4, 165.0)">g</text><text xml:space="preserve" font-family="AvenirNext-Medium" font-size="31.6" fill="#838686" transform="matrix(1.00, 0.00, -0.00, -1.00, 262.4, 165.0)">r</text><text xml:space="preserve" font-family="AvenirNext-Medium" font-size="31.6" fill="#838686" transform="matrix(1.00, 0.00, -0.00, -1.00, 273.4, 165.0)">a</text><text xml:space="preserve" font-family="AvenirNext-Medium" font-size="31.6" fill="#838686" transform="matrix(1.00, 0.00, -0.00, -1.00, 290.2, 165.0)">t</text><text xml:space="preserve" font-family="AvenirNext-Medium" font-size="31.6" fill="#838686" transform="matrix(1.00, 0.00, -0.00, -1.00, 300.6, 165.0)">i</text><text xml:space="preserve" font-family="AvenirNext-Medium" font-size="31.6" fill="#838686" transform="matrix(1.00, 0.00, -0.00, -1.00, 308.8, 165.0)">o</text><text xml:space="preserve" font-family="AvenirNext-Medium" font-size="31.6" fill="#838686" transform="matrix(1.00, 0.00, -0.00, -1.00, 328.1, 165.0)">n</text><text xml:space="preserve" font-family="AvenirNext-Medium" font-size="31.6" fill="#838686" transform="matrix(1.00, 0.00, -0.00, -1.00, 346.5, 165.0)"> </text><text xml:space="preserve" font-family="AvenirNext-Medium" font-size="31.6" fill="#838686" transform="matrix(1.00, 0.00, -0.00, -1.00, 354.4, 165.0)">t</text><text xml:space="preserve" font-family="AvenirNext-Medium" font-size="31.6" fill="#838686" transform="matrix(1.00, 0.00, -0.00, -1.00, 364.8, 165.0)">e</text><text xml:space="preserve" font-family="AvenirNext-Medium" font-size="31.6" fill="#838686" transform="matrix(1.00, 0.00, -0.00, -1.00, 382.9, 165.0)">s</text><text xml:space="preserve" font-family="AvenirNext-Medium" font-size="31.6" fill="#838686" transform="matrix(1.00, 0.00, -0.00, -1.00, 397.0, 165.0)">t</text><text xml:space="preserve" font-family="AvenirNext-Medium" font-size="31.6" fill="#838686" transform="matrix(1.00, 0.00, -0.00, -1.00, 407.4, 165.0)">i</text><text xml:space="preserve" font-family="AvenirNext-Medium" font-size="31.6" fill="#838686" transform="matrix(1.00, 0.00, -0.00, -1.00, 415.6, 165.0)">n</text><text xml:space="preserve" font-family="AvenirNext-Medium" font-size="31.6" fill="#838686" transform="matrix(1.00, 0.00, -0.00, -1.00, 434.0, 165.0)">g</text><text xml:space="preserve" font-family="AvenirNext-Medium" font-size="31.6" fill="#838686" transform="matrix(1.00, 0.00, -0.00, -1.00, 453.9, 165.0)"> </text><text xml:space="preserve" font-family="AvenirNext-Medium" font-size="31.6" fill="#838686" transform="matrix(1.00, 0.00, -0.00, -1.00, 461.8, 165.0)">o</text><text xml:space="preserve" font-family="AvenirNext-Medium" font-size="31.6" fill="#838686" transform="matrix(1.00, 0.00, -0.00, -1.00, 481.1, 165.0)">n</text><text xml:space="preserve" font-family="AvenirNext-Medium" font-size="31.6" fill="#838686" transform="matrix(1.00, 0.00, -0.00, -1.00, 499.5, 165.0)"> </text><text xml:space="preserve" font-family="AvenirNext-Medium" font-size="31.6" fill="#838686" transform="matrix(1.00, 0.00, -0.00, -1.00, 507.4, 165.0)">t</text><text xml:space="preserve" font-family="AvenirNext-Medium" font-size="31.6" fill="#838686" transform="matrix(1.00, 0.00, -0.00, -1.00, 517.8, 165.0)">h</text><text xml:space="preserve" font-family="AvenirNext-Medium" font-size="31.6" fill="#838686" transform="matrix(1.00, 0.00, -0.00, -1.00, 536.3, 165.0)">e</text><text xml:space="preserve" font-family="AvenirNext-Medium" font-size="31.6" fill="#838686" transform="matrix(1.00, 0.00, -0.00, -1.00, 554.4, 165.0)">m</text><text xml:space="preserve" font-family="AvenirNext-Medium" font-size="31.6" fill="#838686" transform="matrix(1.00, 0.00, -0.00, -1.00, 88.0, 95.3)">E</text><text xml:space="preserve" font-family="AvenirNext-Medium" font-size="31.6" fill="#838686" transform="matrix(1.00, 0.00, -0.00, -1.00, 107.0, 95.3)">.</text><text xml:space="preserve" font-family="AvenirNext-Medium" font-size="31.6" fill="#838686" transform="matrix(1.00, 0.00, -0.00, -1.00, 136.0, 95.0)">G</text><text xml:space="preserve" font-family="AvenirNext-Medium" font-size="31.6" fill="#838686" transform="matrix(1.00, 0.00, -0.00, -1.00, 160.6, 95.0)">i</text><text xml:space="preserve" font-family="AvenirNext-Medium" font-size="31.6" fill="#838686" transform="matrix(1.00, 0.00, -0.00, -1.00, 168.8, 95.0)">v</text><text xml:space="preserve" font-family="AvenirNext-Medium" font-size="31.6" fill="#838686" transform="matrix(1.00, 0.00, -0.00, -1.00, 184.7, 95.0)">e</text><text xml:space="preserve" font-family="AvenirNext-Medium" font-size="31.6" fill="#838686" transform="matrix(1.00, 0.00, -0.00, -1.00, 202.8, 95.0)">n</text><text xml:space="preserve" font-family="AvenirNext-Medium" font-size="31.6" fill="#838686" transform="matrix(1.00, 0.00, -0.00, -1.00, 221.2, 95.0)"> </text><text xml:space="preserve" font-family="AvenirNext-Medium" font-size="31.6" fill="#838686" transform="matrix(1.00, 0.00, -0.00, -1.00, 229.2, 95.0)">t</text><text xml:space="preserve" font-family="AvenirNext-Medium" font-size="31.6" fill="#838686" transform="matrix(1.00, 0.00, -0.00, -1.00, 239.6, 95.0)">h</text><text xml:space="preserve" font-family="AvenirNext-Medium" font-size="31.6" fill="#838686" transform="matrix(1.00, 0.00, -0.00, -1.00, 258.0, 95.0)">e</text><text xml:space="preserve" font-family="AvenirNext-Medium" font-size="31.6" fill="#838686" transform="matrix(1.00, 0.00, -0.00, -1.00, 276.1, 95.0)"> </text><text xml:space="preserve" font-family="AvenirNext-Medium" font-size="31.6" fill="#838686" transform="matrix(1.00, 0.00, -0.00, -1.00, 284.0, 95.0)">t</text><text xml:space="preserve" font-family="AvenirNext-Medium" font-size="31.6" fill="#838686" transform="matrix(1.00, 0.00, -0.00, -1.00, 294.4, 95.0)">h</text><text xml:space="preserve" font-family="AvenirNext-Medium" font-size="31.6" fill="#838686" transform="matrix(1.00, 0.00, -0.00, -1.00, 312.9, 95.0)">i</text><text xml:space="preserve" font-family="AvenirNext-Medium" font-size="31.6" fill="#838686" transform="matrix(1.00, 0.00, -0.00, -1.00, 321.1, 95.0)">n</text><text xml:space="preserve" font-family="AvenirNext-Medium" font-size="31.6" fill="#838686" transform="matrix(1.00, 0.00, -0.00, -1.00, 339.5, 95.0)">g</text><text xml:space="preserve" font-family="AvenirNext-Medium" font-size="31.6" fill="#838686" transform="matrix(1.00, 0.00, -0.00, -1.00, 359.5, 95.0)"> </text><text xml:space="preserve" font-family="AvenirNext-Medium" font-size="31.6" fill="#838686" transform="matrix(1.00, 0.00, -0.00, -1.00, 367.4, 95.0)">w</text><text xml:space="preserve" font-family="AvenirNext-Medium" font-size="31.6" fill="#838686" transform="matrix(1.00, 0.00, -0.00, -1.00, 391.8, 95.0)">e</text><text xml:space="preserve" font-family="AvenirNext-Medium" font-size="31.6" fill="#838686" transform="matrix(1.00, 0.00, -0.00, -1.00, 410.0, 95.0)">’</text><text xml:space="preserve" font-family="AvenirNext-Medium" font-size="31.6" fill="#838686" transform="matrix(1.00, 0.00, -0.00, -1.00, 417.7, 95.0)">v</text><text xml:space="preserve" font-family="AvenirNext-Medium" font-size="31.6" fill="#838686" transform="matrix(1.00, 0.00, -0.00, -1.00, 433.7, 95.0)">e</text><text xml:space="preserve" font-family="AvenirNext-Medium" font-size="31.6" fill="#838686" transform="matrix(1.00, 0.00, -0.00, -1.00, 451.8, 95.0)"> </text><text xml:space="preserve" font-family="AvenirNext-Medium" font-size="31.6" fill="#838686" transform="matrix(1.00, 0.00, -0.00, -1.00, 459.7, 95.0)">j</text><text xml:space="preserve" font-family="AvenirNext-Medium" font-size="31.6" fill="#838686" transform="matrix(1.00, 0.00, -0.00, -1.00, 467.9, 95.0)">u</text><text xml:space="preserve" font-family="AvenirNext-Medium" font-size="31.6" fill="#838686" transform="matrix(1.00, 0.00, -0.00, -1.00, 486.3, 95.0)">s</text><text xml:space="preserve" font-family="AvenirNext-Medium" font-size="31.6" fill="#838686" transform="matrix(1.00, 0.00, -0.00, -1.00, 500.4, 95.0)">t</text><text xml:space="preserve" font-family="AvenirNext-Medium" font-size="31.6" fill="#838686" transform="matrix(1.00, 0.00, -0.00, -1.00, 510.8, 95.0)"> </text><text xml:space="preserve" font-family="AvenirNext-Medium" font-size="31.6" fill="#838686" transform="matrix(1.00, 0.00, -0.00, -1.00, 518.7, 95.0)">t</text><text xml:space="preserve" font-family="AvenirNext-Medium" font-size="31.6" fill="#838686" transform="matrix(1.00, 0.00, -0.00, -1.00, 529.1, 95.0)">e</text><text xml:space="preserve" font-family="AvenirNext-Medium" font-size="31.6" fill="#838686" transform="matrix(1.00, 0.00, -0.00, -1.00, 547.2, 95.0)">s</text><text xml:space="preserve" font-family="AvenirNext-Medium" font-size="31.6" fill="#838686" transform="matrix(1.00, 0.00, -0.00, -1.00, 561.2, 95.0)">t</text><text xml:space="preserve" font-family="AvenirNext-Medium" font-size="31.6" fill="#838686" transform="matrix(1.00, 0.00, -0.00, -1.00, 571.6, 95.0)">e</text><text xml:space="preserve" font-family="AvenirNext-Medium" font-size="31.6" fill="#838686" transform="matrix(1.00, 0.00, -0.00, -1.00, 589.7, 95.0)">d</text><text xml:space="preserve" font-family="AvenirNext-Medium" font-size="31.6" fill="#838686" transform="matrix(1.00, 0.00, -0.00, -1.00, 609.8, 95.0)"> </text><text xml:space="preserve" font-family="AvenirNext-Medium" font-size="31.6" fill="#838686" transform="matrix(1.00, 0.00, -0.00, -1.00, 617.7, 95.0)">i</text><text xml:space="preserve" font-family="AvenirNext-Medium" font-size="31.6" fill="#838686" transform="matrix(1.00, 0.00, -0.00, -1.00, 625.9, 95.0)">s</text><text xml:space="preserve" font-family="AvenirNext-Medium" font-size="31.6" fill="#838686" transform="matrix(1.00, 0.00, -0.00, -1.00, 640.0, 95.0)"> </text><text xml:space="preserve" font-family="AvenirNext-Medium" font-size="31.6" fill="#838686" transform="matrix(1.00, 0.00, -0.00, -1.00, 647.9, 95.0)">a</text><text xml:space="preserve" font-family="AvenirNext-Medium" font-size="31.6" fill="#838686" transform="matrix(1.00, 0.00, -0.00, -1.00, 665.0, 95.0)"> </text><text xml:space="preserve" font-family="AvenirNext-Medium" font-size="31.6" fill="#838686" transform="matrix(1.00, 0.00, -0.00, -1.00, 672.9, 95.0)">s</text><text xml:space="preserve" font-family="AvenirNext-Medium" font-size="31.6" fill="#838686" transform="matrix(1.00, 0.00, -0.00, -1.00, 686.9, 95.0)">m</text><text xml:space="preserve" font-family="AvenirNext-Medium" font-size="31.6" fill="#838686" transform="matrix(1.00, 0.00, -0.00, -1.00, 715.0, 95.0)">a</text><text xml:space="preserve" font-family="AvenirNext-Medium" font-size="31.6" fill="#838686" transform="matrix(1.00, 0.00, -0.00, -1.00, 732.1, 95.0)">l</text><text xml:space="preserve" font-family="AvenirNext-Medium" font-size="31.6" fill="#838686" transform="matrix(1.00, 0.00, -0.00, -1.00, 740.4, 95.0)">l</text><text xml:space="preserve" font-family="AvenirNext-Medium" font-size="31.6" fill="#838686" transform="matrix(1.00, 0.00, -0.00, -1.00, 748.6, 95.0)"> </text><text xml:space="preserve" font-family="AvenirNext-Medium" font-size="31.6" fill="#838686" transform="matrix(1.00, 0.00, -0.00, -1.00, 756.5, 95.0)">b</text><text xml:space="preserve" font-family="AvenirNext-Medium" font-size="31.6" fill="#838686" transform="matrix(1.00, 0.00, -0.00, -1.00, 776.6, 95.0)">l</text><text xml:space="preserve" font-family="AvenirNext-Medium" font-size="31.6" fill="#838686" transform="matrix(1.00, 0.00, -0.00, -1.00, 784.8, 95.0)">o</text><text xml:space="preserve" font-family="AvenirNext-Medium" font-size="31.6" fill="#838686" transform="matrix(1.00, 0.00, -0.00, -1.00, 804.1, 95.0)">c</text><text xml:space="preserve" font-family="AvenirNext-Medium" font-size="31.6" fill="#838686" transform="matrix(1.00, 0.00, -0.00, -1.00, 819.7, 95.0)">k</text><text xml:space="preserve" font-family="AvenirNext-Medium" font-size="31.6" fill="#838686" transform="matrix(1.00, 0.00, -0.00, -1.00, 836.4, 95.0)">,</text><text xml:space="preserve" font-family="AvenirNext-Medium" font-size="31.6" fill="#838686" transform="matrix(1.00, 0.00, -0.00, -1.00, 843.7, 95.0)"> </text><text xml:space="preserve" font-family="AvenirNext-Medium" font-size="31.6" fill="#838686" transform="matrix(1.00, 0.00, -0.00, -1.00, 851.6, 95.0)">g</text><text xml:space="preserve" font-family="AvenirNext-Medium" font-size="31.6" fill="#838686" transform="matrix(1.00, 0.00, -0.00, -1.00, 871.5, 95.0)">o</text><text xml:space="preserve" font-family="AvenirNext-Medium" font-size="31.6" fill="#838686" transform="matrix(1.00, 0.00, -0.00, -1.00, 890.8, 95.0)"> </text><text xml:space="preserve" font-family="AvenirNext-Medium" font-size="31.6" fill="#838686" transform="matrix(1.00, 0.00, -0.00, -1.00, 898.7, 95.0)">t</text><text xml:space="preserve" font-family="AvenirNext-Medium" font-size="31.6" fill="#838686" transform="matrix(1.00, 0.00, -0.00, -1.00, 909.1, 95.0)">o</text><text xml:space="preserve" font-family="AvenirNext-Medium" font-size="31.6" fill="#838686" transform="matrix(1.00, 0.00, -0.00, -1.00, 928.4, 95.0)"> </text><text xml:space="preserve" font-family="AvenirNext-Medium" font-size="31.6" fill="#838686" transform="matrix(1.00, 0.00, -0.00, -1.00, 936.3, 95.0)">(</text><text xml:space="preserve" font-family="AvenirNext-Medium" font-size="31.6" fill="#838686" transform="matrix(1.00, 0.00, -0.00, -1.00, 946.3, 95.0)">A</text><text xml:space="preserve" font-family="AvenirNext-Medium" font-size="31.6" fill="#838686" transform="matrix(1.00, 0.00, -0.00, -1.00, 968.8, 95.0)">)</text><text xml:space="preserve" font-family="AvenirNext-Medium" font-size="31.6" fill="#838686" transform="matrix(1.00, 0.00, -0.00, -1.00, 978.7, 95.0)"> </text></g></svg>