<?xml version="1.0" encoding="UTF-8" standalone="no"?><svg xmlns="http://www.w3.org/2000/svg" xmlns:xlink="http://www.w3.org/1999/xlink" clip-rule="evenodd" stroke-miterlimit="4.00" viewBox="0 0 886 40"><desc>SVG generated by Keynote</desc><defs></defs><g transform="matrix(1.00, 0.00, -0.00, -1.00, 0.0, 40.0)"><text xml:space="preserve" font-family="LucidaGrande" font-size="33.2" fill="#34A4DA" transform="matrix(1.00, 0.00, -0.00, -1.00, 0.0, 7.5)">▸</text><text xml:space="preserve" font-family="AvenirNext-Medium" font-size="31.6" fill="#838686" transform="matrix(1.00, 0.00, -0.00, -1.00, 33.0, 10.0)">I</text><text xml:space="preserve" font-family="AvenirNext-Medium" font-size="31.6" fill="#838686" transform="matrix(1.00, 0.00, -0.00, -1.00, 41.6, 10.0)">t</text><text xml:space="preserve" font-family="AvenirNext-Medium" font-size="31.6" fill="#838686" transform="matrix(1.00, 0.00, -0.00, -1.00, 52.0, 10.0)">'</text><text xml:space="preserve" font-family="AvenirNext-Medium" font-size="31.6" fill="#838686" transform="matrix(1.00, 0.00, -0.00, -1.00, 60.3, 10.0)">s</text><text xml:space="preserve" font-family="AvenirNext-Medium" font-size="31.6" fill="#838686" transform="matrix(1.00, 0.00, -0.00, -1.00, 74.3, 10.0)"> </text><text xml:space="preserve" font-family="AvenirNext-Medium" font-size="31.6" fill="#838686" transform="matrix(1.00, 0.00, -0.00, -1.00, 82.2, 10.0)">r</text><text xml:space="preserve" font-family="AvenirNext-Medium" font-size="31.6" fill="#838686" transform="matrix(1.00, 0.00, -0.00, -1.00, 93.1, 10.0)">e</text><text xml:space="preserve" font-family="AvenirNext-Medium" font-size="31.6" fill="#838686" transform="matrix(1.00, 0.00, -0.00, -1.00, 111.2, 10.0)">l</text><text xml:space="preserve" font-family="AvenirNext-Medium" font-size="31.6" fill="#838686" transform="matrix(1.00, 0.00, -0.00, -1.00, 119.4, 10.0)">a</text><text xml:space="preserve" font-family="AvenirNext-Medium" font-size="31.6" fill="#838686" transform="matrix(1.00, 0.00, -0.00, -1.00, 136.2, 10.0)">t</text><text xml:space="preserve" font-family="AvenirNext-Medium" font-size="31.6" fill="#838686" transform="matrix(1.00, 0.00, -0.00, -1.00, 146.6, 10.0)">i</text><text xml:space="preserve" font-family="AvenirNext-Medium" font-size="31.6" fill="#838686" transform="matrix(1.00, 0.00, -0.00, -1.00, 154.8, 10.0)">v</text><text xml:space="preserve" font-family="AvenirNext-Medium" font-size="31.6" fill="#838686" transform="matrix(1.00, 0.00, -0.00, -1.00, 170.8, 10.0)">e</text><text xml:space="preserve" font-family="AvenirNext-Medium" font-size="31.6" fill="#838686" transform="matrix(1.00, 0.00, -0.00, -1.00, 188.9, 10.0)">.</text><text xml:space="preserve" font-family="AvenirNext-Medium" font-size="31.6" fill="#838686" transform="matrix(1.00, 0.00, -0.00, -1.00, 196.2, 10.0)"> </text><text xml:space="preserve" font-family="AvenirNext-Medium" font-size="31.6" fill="#838686" transform="matrix(1.00, 0.00, -0.00, -1.00, 203.3, 10.0)">Y</text><text xml:space="preserve" font-family="AvenirNext-Medium" font-size="31.6" fill="#838686" transform="matrix(1.00, 0.00, -0.00, -1.00, 220.1, 10.0)">o</text><text xml:space="preserve" font-family="AvenirNext-Medium" font-size="31.6" fill="#838686" transform="matrix(1.00, 0.00, -0.00, -1.00, 239.4, 10.0)">u</text><text xml:space="preserve" font-family="AvenirNext-Medium" font-size="31.6" fill="#838686" transform="matrix(1.00, 0.00, -0.00, -1.00, 257.8, 10.0)">r</text><text xml:space="preserve" font-family="AvenirNext-Medium" font-size="31.6" fill="#838686" transform="matrix(1.00, 0.00, -0.00, -1.00, 269.2, 10.0)"> </text><text xml:space="preserve" font-family="AvenirNext-Medium" font-size="31.6" fill="#838686" transform="matrix(1.00, 0.00, -0.00, -1.00, 277.1, 10.0)">u</text><text xml:space="preserve" font-family="AvenirNext-Medium" font-size="31.6" fill="#838686" transform="matrix(1.00, 0.00, -0.00, -1.00, 295.5, 10.0)">n</text><text xml:space="preserve" font-family="AvenirNext-Medium" font-size="31.6" fill="#838686" transform="matrix(1.00, 0.00, -0.00, -1.00, 313.9, 10.0)">i</text><text xml:space="preserve" font-family="AvenirNext-Medium" font-size="31.6" fill="#838686" transform="matrix(1.00, 0.00, -0.00, -1.00, 322.1, 10.0)">t</text><text xml:space="preserve" font-family="AvenirNext-Medium" font-size="31.6" fill="#838686" transform="matrix(1.00, 0.00, -0.00, -1.00, 332.5, 10.0)"> </text><text xml:space="preserve" font-family="AvenirNext-Medium" font-size="31.6" fill="#838686" transform="matrix(1.00, 0.00, -0.00, -1.00, 340.4, 10.0)">m</text><text xml:space="preserve" font-family="AvenirNext-Medium" font-size="31.6" fill="#838686" transform="matrix(1.00, 0.00, -0.00, -1.00, 368.5, 10.0)">i</text><text xml:space="preserve" font-family="AvenirNext-Medium" font-size="31.6" fill="#838686" transform="matrix(1.00, 0.00, -0.00, -1.00, 376.7, 10.0)">g</text><text xml:space="preserve" font-family="AvenirNext-Medium" font-size="31.6" fill="#838686" transform="matrix(1.00, 0.00, -0.00, -1.00, 396.7, 10.0)">h</text><text xml:space="preserve" font-family="AvenirNext-Medium" font-size="31.6" fill="#838686" transform="matrix(1.00, 0.00, -0.00, -1.00, 415.1, 10.0)">t</text><text xml:space="preserve" font-family="AvenirNext-Medium" font-size="31.6" fill="#838686" transform="matrix(1.00, 0.00, -0.00, -1.00, 425.5, 10.0)"> </text><text xml:space="preserve" font-family="AvenirNext-Medium" font-size="31.6" fill="#838686" transform="matrix(1.00, 0.00, -0.00, -1.00, 433.4, 10.0)">b</text><text xml:space="preserve" font-family="AvenirNext-Medium" font-size="31.6" fill="#838686" transform="matrix(1.00, 0.00, -0.00, -1.00, 453.5, 10.0)">e</text><text xml:space="preserve" font-family="AvenirNext-Medium" font-size="31.6" fill="#838686" transform="matrix(1.00, 0.00, -0.00, -1.00, 471.7, 10.0)"> </text><text xml:space="preserve" font-family="AvenirNext-Medium" font-size="31.6" fill="#838686" transform="matrix(1.00, 0.00, -0.00, -1.00, 479.6, 10.0)">s</text><text xml:space="preserve" font-family="AvenirNext-Medium" font-size="31.6" fill="#838686" transform="matrix(1.00, 0.00, -0.00, -1.00, 493.6, 10.0)">o</text><text xml:space="preserve" font-family="AvenirNext-Medium" font-size="31.6" fill="#838686" transform="matrix(1.00, 0.00, -0.00, -1.00, 512.9, 10.0)">m</text><text xml:space="preserve" font-family="AvenirNext-Medium" font-size="31.6" fill="#838686" transform="matrix(1.00, 0.00, -0.00, -1.00, 540.9, 10.0)">e</text><text xml:space="preserve" font-family="AvenirNext-Medium" font-size="31.6" fill="#838686" transform="matrix(1.00, 0.00, -0.00, -1.00, 559.1, 10.0)">o</text><text xml:space="preserve" font-family="AvenirNext-Medium" font-size="31.6" fill="#838686" transform="matrix(1.00, 0.00, -0.00, -1.00, 578.4, 10.0)">n</text><text xml:space="preserve" font-family="AvenirNext-Medium" font-size="31.6" fill="#838686" transform="matrix(1.00, 0.00, -0.00, -1.00, 596.8, 10.0)">e</text><text xml:space="preserve" font-family="AvenirNext-Medium" font-size="31.6" fill="#838686" transform="matrix(1.00, 0.00, -0.00, -1.00, 614.9, 10.0)"> </text><text xml:space="preserve" font-family="AvenirNext-Medium" font-size="31.6" fill="#838686" transform="matrix(1.00, 0.00, -0.00, -1.00, 622.8, 10.0)">e</text><text xml:space="preserve" font-family="AvenirNext-Medium" font-size="31.6" fill="#838686" transform="matrix(1.00, 0.00, -0.00, -1.00, 640.9, 10.0)">l</text><text xml:space="preserve" font-family="AvenirNext-Medium" font-size="31.6" fill="#838686" transform="matrix(1.00, 0.00, -0.00, -1.00, 649.1, 10.0)">s</text><text xml:space="preserve" font-family="AvenirNext-Medium" font-size="31.6" fill="#838686" transform="matrix(1.00, 0.00, -0.00, -1.00, 663.2, 10.0)">e</text><text xml:space="preserve" font-family="AvenirNext-Medium" font-size="31.6" fill="#838686" transform="matrix(1.00, 0.00, -0.00, -1.00, 681.3, 10.0)">'</text><text xml:space="preserve" font-family="AvenirNext-Medium" font-size="31.6" fill="#838686" transform="matrix(1.00, 0.00, -0.00, -1.00, 689.6, 10.0)">s</text><text xml:space="preserve" font-family="AvenirNext-Medium" font-size="31.6" fill="#838686" transform="matrix(1.00, 0.00, -0.00, -1.00, 703.6, 10.0)"> </text><text xml:space="preserve" font-family="AvenirNext-Medium" font-size="31.6" fill="#838686" transform="matrix(1.00, 0.00, -0.00, -1.00, 711.5, 10.0)">c</text><text xml:space="preserve" font-family="AvenirNext-Medium" font-size="31.6" fill="#838686" transform="matrix(1.00, 0.00, -0.00, -1.00, 727.1, 10.0)">o</text><text xml:space="preserve" font-family="AvenirNext-Medium" font-size="31.6" fill="#838686" transform="matrix(1.00, 0.00, -0.00, -1.00, 746.4, 10.0)">m</text><text xml:space="preserve" font-family="AvenirNext-Medium" font-size="31.6" fill="#838686" transform="matrix(1.00, 0.00, -0.00, -1.00, 774.5, 10.0)">p</text><text xml:space="preserve" font-family="AvenirNext-Medium" font-size="31.6" fill="#838686" transform="matrix(1.00, 0.00, -0.00, -1.00, 794.5, 10.0)">o</text><text xml:space="preserve" font-family="AvenirNext-Medium" font-size="31.6" fill="#838686" transform="matrix(1.00, 0.00, -0.00, -1.00, 813.8, 10.0)">n</text><text xml:space="preserve" font-family="AvenirNext-Medium" font-size="31.6" fill="#838686" transform="matrix(1.00, 0.00, -0.00, -1.00, 832.2, 10.0)">e</text><text xml:space="preserve" font-family="AvenirNext-Medium" font-size="31.6" fill="#838686" transform="matrix(1.00, 0.00, -0.00, -1.00, 850.3, 10.0)">n</text><text xml:space="preserve" font-family="AvenirNext-Medium" font-size="31.6" fill="#838686" transform="matrix(1.00, 0.00, -0.00, -1.00, 868.7, 10.0)">t</text><text xml:space="preserve" font-family="AvenirNext-Medium" font-size="31.6" fill="#838686" transform="matrix(1.00, 0.00, -0.00, -1.00, 879.1, 10.0)">.</text></g></svg>