<?xml version="1.0" encoding="UTF-8" standalone="no"?><svg xmlns="http://www.w3.org/2000/svg" xmlns:xlink="http://www.w3.org/1999/xlink" clip-rule="evenodd" stroke-miterlimit="4.00" viewBox="0 0 893 44"><desc>SVG generated by Keynote</desc><defs></defs><g transform="matrix(1.00, 0.00, -0.00, -1.00, 0.0, 44.0)"><text xml:space="preserve" font-family="AvenirNext-Medium" font-size="31.6" fill="#838686" transform="matrix(1.00, 0.00, -0.00, -1.00, 0.0, 12.3)">E</text><text xml:space="preserve" font-family="AvenirNext-Medium" font-size="31.6" fill="#838686" transform="matrix(1.00, 0.00, -0.00, -1.00, 19.0, 12.3)">.</text><text xml:space="preserve" font-family="AvenirNext-Medium" font-size="31.6" fill="#838686" transform="matrix(1.00, 0.00, -0.00, -1.00, 48.0, 12.0)">G</text><text xml:space="preserve" font-family="AvenirNext-Medium" font-size="31.6" fill="#838686" transform="matrix(1.00, 0.00, -0.00, -1.00, 72.6, 12.0)">i</text><text xml:space="preserve" font-family="AvenirNext-Medium" font-size="31.6" fill="#838686" transform="matrix(1.00, 0.00, -0.00, -1.00, 80.8, 12.0)">v</text><text xml:space="preserve" font-family="AvenirNext-Medium" font-size="31.6" fill="#838686" transform="matrix(1.00, 0.00, -0.00, -1.00, 96.7, 12.0)">e</text><text xml:space="preserve" font-family="AvenirNext-Medium" font-size="31.6" fill="#838686" transform="matrix(1.00, 0.00, -0.00, -1.00, 114.8, 12.0)">n</text><text xml:space="preserve" font-family="AvenirNext-Medium" font-size="31.6" fill="#838686" transform="matrix(1.00, 0.00, -0.00, -1.00, 133.2, 12.0)"> </text><text xml:space="preserve" font-family="AvenirNext-Medium" font-size="31.6" fill="#838686" transform="matrix(1.00, 0.00, -0.00, -1.00, 141.2, 12.0)">t</text><text xml:space="preserve" font-family="AvenirNext-Medium" font-size="31.6" fill="#838686" transform="matrix(1.00, 0.00, -0.00, -1.00, 151.6, 12.0)">h</text><text xml:space="preserve" font-family="AvenirNext-Medium" font-size="31.6" fill="#838686" transform="matrix(1.00, 0.00, -0.00, -1.00, 170.0, 12.0)">e</text><text xml:space="preserve" font-family="AvenirNext-Medium" font-size="31.6" fill="#838686" transform="matrix(1.00, 0.00, -0.00, -1.00, 188.1, 12.0)"> </text><text xml:space="preserve" font-family="AvenirNext-Medium" font-size="31.6" fill="#838686" transform="matrix(1.00, 0.00, -0.00, -1.00, 196.0, 12.0)">t</text><text xml:space="preserve" font-family="AvenirNext-Medium" font-size="31.6" fill="#838686" transform="matrix(1.00, 0.00, -0.00, -1.00, 206.4, 12.0)">h</text><text xml:space="preserve" font-family="AvenirNext-Medium" font-size="31.6" fill="#838686" transform="matrix(1.00, 0.00, -0.00, -1.00, 224.9, 12.0)">i</text><text xml:space="preserve" font-family="AvenirNext-Medium" font-size="31.6" fill="#838686" transform="matrix(1.00, 0.00, -0.00, -1.00, 233.1, 12.0)">n</text><text xml:space="preserve" font-family="AvenirNext-Medium" font-size="31.6" fill="#838686" transform="matrix(1.00, 0.00, -0.00, -1.00, 251.5, 12.0)">g</text><text xml:space="preserve" font-family="AvenirNext-Medium" font-size="31.6" fill="#838686" transform="matrix(1.00, 0.00, -0.00, -1.00, 271.5, 12.0)"> </text><text xml:space="preserve" font-family="AvenirNext-Medium" font-size="31.6" fill="#838686" transform="matrix(1.00, 0.00, -0.00, -1.00, 279.4, 12.0)">w</text><text xml:space="preserve" font-family="AvenirNext-Medium" font-size="31.6" fill="#838686" transform="matrix(1.00, 0.00, -0.00, -1.00, 303.8, 12.0)">e</text><text xml:space="preserve" font-family="AvenirNext-Medium" font-size="31.6" fill="#838686" transform="matrix(1.00, 0.00, -0.00, -1.00, 322.0, 12.0)">’</text><text xml:space="preserve" font-family="AvenirNext-Medium" font-size="31.6" fill="#838686" transform="matrix(1.00, 0.00, -0.00, -1.00, 329.7, 12.0)">v</text><text xml:space="preserve" font-family="AvenirNext-Medium" font-size="31.6" fill="#838686" transform="matrix(1.00, 0.00, -0.00, -1.00, 345.7, 12.0)">e</text><text xml:space="preserve" font-family="AvenirNext-Medium" font-size="31.6" fill="#838686" transform="matrix(1.00, 0.00, -0.00, -1.00, 363.8, 12.0)"> </text><text xml:space="preserve" font-family="AvenirNext-Medium" font-size="31.6" fill="#838686" transform="matrix(1.00, 0.00, -0.00, -1.00, 371.7, 12.0)">j</text><text xml:space="preserve" font-family="AvenirNext-Medium" font-size="31.6" fill="#838686" transform="matrix(1.00, 0.00, -0.00, -1.00, 379.9, 12.0)">u</text><text xml:space="preserve" font-family="AvenirNext-Medium" font-size="31.6" fill="#838686" transform="matrix(1.00, 0.00, -0.00, -1.00, 398.3, 12.0)">s</text><text xml:space="preserve" font-family="AvenirNext-Medium" font-size="31.6" fill="#838686" transform="matrix(1.00, 0.00, -0.00, -1.00, 412.4, 12.0)">t</text><text xml:space="preserve" font-family="AvenirNext-Medium" font-size="31.6" fill="#838686" transform="matrix(1.00, 0.00, -0.00, -1.00, 422.8, 12.0)"> </text><text xml:space="preserve" font-family="AvenirNext-Medium" font-size="31.6" fill="#838686" transform="matrix(1.00, 0.00, -0.00, -1.00, 430.7, 12.0)">t</text><text xml:space="preserve" font-family="AvenirNext-Medium" font-size="31.6" fill="#838686" transform="matrix(1.00, 0.00, -0.00, -1.00, 441.1, 12.0)">e</text><text xml:space="preserve" font-family="AvenirNext-Medium" font-size="31.6" fill="#838686" transform="matrix(1.00, 0.00, -0.00, -1.00, 459.2, 12.0)">s</text><text xml:space="preserve" font-family="AvenirNext-Medium" font-size="31.6" fill="#838686" transform="matrix(1.00, 0.00, -0.00, -1.00, 473.2, 12.0)">t</text><text xml:space="preserve" font-family="AvenirNext-Medium" font-size="31.6" fill="#838686" transform="matrix(1.00, 0.00, -0.00, -1.00, 483.6, 12.0)">e</text><text xml:space="preserve" font-family="AvenirNext-Medium" font-size="31.6" fill="#838686" transform="matrix(1.00, 0.00, -0.00, -1.00, 501.7, 12.0)">d</text><text xml:space="preserve" font-family="AvenirNext-Medium" font-size="31.6" fill="#838686" transform="matrix(1.00, 0.00, -0.00, -1.00, 521.8, 12.0)"> </text><text xml:space="preserve" font-family="AvenirNext-Medium" font-size="31.6" fill="#838686" transform="matrix(1.00, 0.00, -0.00, -1.00, 529.7, 12.0)">i</text><text xml:space="preserve" font-family="AvenirNext-Medium" font-size="31.6" fill="#838686" transform="matrix(1.00, 0.00, -0.00, -1.00, 537.9, 12.0)">s</text><text xml:space="preserve" font-family="AvenirNext-Medium" font-size="31.6" fill="#838686" transform="matrix(1.00, 0.00, -0.00, -1.00, 552.0, 12.0)"> </text><text xml:space="preserve" font-family="AvenirNext-Medium" font-size="31.6" fill="#838686" transform="matrix(1.00, 0.00, -0.00, -1.00, 559.9, 12.0)">a</text><text xml:space="preserve" font-family="AvenirNext-Medium" font-size="31.6" fill="#838686" transform="matrix(1.00, 0.00, -0.00, -1.00, 577.0, 12.0)"> </text><text xml:space="preserve" font-family="AvenirNext-Medium" font-size="31.6" fill="#838686" transform="matrix(1.00, 0.00, -0.00, -1.00, 584.9, 12.0)">s</text><text xml:space="preserve" font-family="AvenirNext-Medium" font-size="31.6" fill="#838686" transform="matrix(1.00, 0.00, -0.00, -1.00, 598.9, 12.0)">m</text><text xml:space="preserve" font-family="AvenirNext-Medium" font-size="31.6" fill="#838686" transform="matrix(1.00, 0.00, -0.00, -1.00, 627.0, 12.0)">a</text><text xml:space="preserve" font-family="AvenirNext-Medium" font-size="31.6" fill="#838686" transform="matrix(1.00, 0.00, -0.00, -1.00, 644.1, 12.0)">l</text><text xml:space="preserve" font-family="AvenirNext-Medium" font-size="31.6" fill="#838686" transform="matrix(1.00, 0.00, -0.00, -1.00, 652.4, 12.0)">l</text><text xml:space="preserve" font-family="AvenirNext-Medium" font-size="31.6" fill="#838686" transform="matrix(1.00, 0.00, -0.00, -1.00, 660.6, 12.0)"> </text><text xml:space="preserve" font-family="AvenirNext-Medium" font-size="31.6" fill="#838686" transform="matrix(1.00, 0.00, -0.00, -1.00, 668.5, 12.0)">b</text><text xml:space="preserve" font-family="AvenirNext-Medium" font-size="31.6" fill="#838686" transform="matrix(1.00, 0.00, -0.00, -1.00, 688.6, 12.0)">l</text><text xml:space="preserve" font-family="AvenirNext-Medium" font-size="31.6" fill="#838686" transform="matrix(1.00, 0.00, -0.00, -1.00, 696.8, 12.0)">o</text><text xml:space="preserve" font-family="AvenirNext-Medium" font-size="31.6" fill="#838686" transform="matrix(1.00, 0.00, -0.00, -1.00, 716.1, 12.0)">c</text><text xml:space="preserve" font-family="AvenirNext-Medium" font-size="31.6" fill="#838686" transform="matrix(1.00, 0.00, -0.00, -1.00, 731.7, 12.0)">k</text><text xml:space="preserve" font-family="AvenirNext-Medium" font-size="31.6" fill="#838686" transform="matrix(1.00, 0.00, -0.00, -1.00, 748.4, 12.0)">,</text><text xml:space="preserve" font-family="AvenirNext-Medium" font-size="31.6" fill="#838686" transform="matrix(1.00, 0.00, -0.00, -1.00, 755.7, 12.0)"> </text><text xml:space="preserve" font-family="AvenirNext-Medium" font-size="31.6" fill="#838686" transform="matrix(1.00, 0.00, -0.00, -1.00, 763.6, 12.0)">g</text><text xml:space="preserve" font-family="AvenirNext-Medium" font-size="31.6" fill="#838686" transform="matrix(1.00, 0.00, -0.00, -1.00, 783.5, 12.0)">o</text><text xml:space="preserve" font-family="AvenirNext-Medium" font-size="31.6" fill="#838686" transform="matrix(1.00, 0.00, -0.00, -1.00, 802.8, 12.0)"> </text><text xml:space="preserve" font-family="AvenirNext-Medium" font-size="31.6" fill="#838686" transform="matrix(1.00, 0.00, -0.00, -1.00, 810.7, 12.0)">t</text><text xml:space="preserve" font-family="AvenirNext-Medium" font-size="31.6" fill="#838686" transform="matrix(1.00, 0.00, -0.00, -1.00, 821.1, 12.0)">o</text><text xml:space="preserve" font-family="AvenirNext-Medium" font-size="31.6" fill="#838686" transform="matrix(1.00, 0.00, -0.00, -1.00, 840.4, 12.0)"> </text><text xml:space="preserve" font-family="AvenirNext-Medium" font-size="31.6" fill="#838686" transform="matrix(1.00, 0.00, -0.00, -1.00, 848.3, 12.0)">(</text><text xml:space="preserve" font-family="AvenirNext-Medium" font-size="31.6" fill="#838686" transform="matrix(1.00, 0.00, -0.00, -1.00, 858.3, 12.0)">A</text><text xml:space="preserve" font-family="AvenirNext-Medium" font-size="31.6" fill="#838686" transform="matrix(1.00, 0.00, -0.00, -1.00, 880.8, 12.0)">)</text><text xml:space="preserve" font-family="AvenirNext-Medium" font-size="31.6" fill="#838686" transform="matrix(1.00, 0.00, -0.00, -1.00, 890.7, 12.0)"> </text></g></svg>