<?xml version="1.0" encoding="UTF-8" standalone="no"?><svg xmlns="http://www.w3.org/2000/svg" xmlns:xlink="http://www.w3.org/1999/xlink" clip-rule="evenodd" stroke-miterlimit="4.00" viewBox="0 0 1024 768"><desc>SVG generated by Keynote</desc><defs></defs><g transform="matrix(1.00, 0.00, -0.00, -1.00, 0.0, 768.0)"><path d="M 0.0 768.0 L 1024.0 768.0 L 1024.0 0.0 L 0.0 0.0 Z M 0.0 768.0 " fill="#212121"></path><path d="M 0.0 0.0 L 960.0 0.0 " fill="none" stroke="#A6AAA9" stroke-width="2.00" transform="matrix(1.00, 0.00, 0.00, -1.00, 32.0, 689.8)"></path><path d="M 46.8 582.0 C 41.4 582.0 37.0 577.6 37.0 572.2 L 37.0 223.8 C 37.0 218.4 41.4 214.0 46.8 214.0 L 794.7 214.0 L 822.1 170.2 L 849.4 214.0 L 977.2 214.0 C 982.6 214.0 987.0 218.4 987.0 223.8 L 987.0 572.2 C 987.0 577.6 982.6 582.0 977.2 582.0 L 46.8 582.0 Z M 46.8 582.0 " fill="#34A4DA"></path><text xml:space="preserve" font-family="DINCondensed-Bold" font-weight="bold" font-size="87.0" fill="#FFFFFF" transform="matrix(1.00, 0.00, -0.00, -1.00, 74.0, 473.0)">A</text><text xml:space="preserve" font-family="DINCondensed-Bold" font-weight="bold" font-size="87.0" fill="#FFFFFF" transform="matrix(1.00, 0.00, -0.00, -1.00, 104.6, 473.0)">T</text><text xml:space="preserve" font-family="DINCondensed-Bold" font-weight="bold" font-size="87.0" fill="#FFFFFF" transform="matrix(1.00, 0.00, -0.00, -1.00, 133.5, 473.0)"> </text><text xml:space="preserve" font-family="DINCondensed-Bold" font-weight="bold" font-size="87.0" fill="#FFFFFF" transform="matrix(1.00, 0.00, -0.00, -1.00, 149.7, 473.0)">I</text><text xml:space="preserve" font-family="DINCondensed-Bold" font-weight="bold" font-size="87.0" fill="#FFFFFF" transform="matrix(1.00, 0.00, -0.00, -1.00, 167.4, 473.0)">T</text><text xml:space="preserve" font-family="DINCondensed-Bold" font-weight="bold" font-size="87.0" fill="#FFFFFF" transform="matrix(1.00, 0.00, -0.00, -1.00, 196.3, 473.0)">S</text><text xml:space="preserve" font-family="DINCondensed-Bold" font-weight="bold" font-size="87.0" fill="#FFFFFF" transform="matrix(1.00, 0.00, -0.00, -1.00, 231.6, 473.0)"> </text><text xml:space="preserve" font-family="DINCondensed-Bold" font-weight="bold" font-size="87.0" fill="#FFFFFF" transform="matrix(1.00, 0.00, -0.00, -1.00, 247.8, 473.0)">C</text><text xml:space="preserve" font-family="DINCondensed-Bold" font-weight="bold" font-size="87.0" fill="#FFFFFF" transform="matrix(1.00, 0.00, -0.00, -1.00, 283.2, 473.0)">O</text><text xml:space="preserve" font-family="DINCondensed-Bold" font-weight="bold" font-size="87.0" fill="#FFFFFF" transform="matrix(1.00, 0.00, -0.00, -1.00, 320.3, 473.0)">R</text><text xml:space="preserve" font-family="DINCondensed-Bold" font-weight="bold" font-size="87.0" fill="#FFFFFF" transform="matrix(1.00, 0.00, -0.00, -1.00, 357.4, 473.0)">E</text><text xml:space="preserve" font-family="DINCondensed-Bold" font-weight="bold" font-size="87.0" fill="#FFFFFF" transform="matrix(1.00, 0.00, -0.00, -1.00, 389.5, 473.0)">,</text><text xml:space="preserve" font-family="DINCondensed-Bold" font-weight="bold" font-size="87.0" fill="#FFFFFF" transform="matrix(1.00, 0.00, -0.00, -1.00, 405.7, 473.0)"> </text><text xml:space="preserve" font-family="DINCondensed-Bold" font-weight="bold" font-size="87.0" fill="#FFFFFF" transform="matrix(1.00, 0.00, -0.00, -1.00, 421.9, 473.0)">T</text><text xml:space="preserve" font-family="DINCondensed-Bold" font-weight="bold" font-size="87.0" fill="#FFFFFF" transform="matrix(1.00, 0.00, -0.00, -1.00, 450.8, 473.0)">E</text><text xml:space="preserve" font-family="DINCondensed-Bold" font-weight="bold" font-size="87.0" fill="#FFFFFF" transform="matrix(1.00, 0.00, -0.00, -1.00, 483.0, 473.0)">S</text><text xml:space="preserve" font-family="DINCondensed-Bold" font-weight="bold" font-size="87.0" fill="#FFFFFF" transform="matrix(1.00, 0.00, -0.00, -1.00, 518.3, 473.0)">T</text><text xml:space="preserve" font-family="DINCondensed-Bold" font-weight="bold" font-size="87.0" fill="#FFFFFF" transform="matrix(1.00, 0.00, -0.00, -1.00, 547.2, 473.0)">I</text><text xml:space="preserve" font-family="DINCondensed-Bold" font-weight="bold" font-size="87.0" fill="#FFFFFF" transform="matrix(1.00, 0.00, -0.00, -1.00, 564.9, 473.0)">N</text><text xml:space="preserve" font-family="DINCondensed-Bold" font-weight="bold" font-size="87.0" fill="#FFFFFF" transform="matrix(1.00, 0.00, -0.00, -1.00, 603.6, 473.0)">G</text><text xml:space="preserve" font-family="DINCondensed-Bold" font-weight="bold" font-size="87.0" fill="#FFFFFF" transform="matrix(1.00, 0.00, -0.00, -1.00, 640.6, 473.0)"> </text><text xml:space="preserve" font-family="DINCondensed-Bold" font-weight="bold" font-size="87.0" fill="#FFFFFF" transform="matrix(1.00, 0.00, -0.00, -1.00, 656.8, 473.0)">I</text><text xml:space="preserve" font-family="DINCondensed-Bold" font-weight="bold" font-size="87.0" fill="#FFFFFF" transform="matrix(1.00, 0.00, -0.00, -1.00, 674.6, 473.0)">S</text><text xml:space="preserve" font-family="DINCondensed-Bold" font-weight="bold" font-size="87.0" fill="#FFFFFF" transform="matrix(1.00, 0.00, -0.00, -1.00, 709.9, 473.0)"> </text><text xml:space="preserve" font-family="DINCondensed-Bold" font-weight="bold" font-size="87.0" fill="#FFFFFF" transform="matrix(1.00, 0.00, -0.00, -1.00, 726.1, 473.0)">T</text><text xml:space="preserve" font-family="DINCondensed-Bold" font-weight="bold" font-size="87.0" fill="#FFFFFF" transform="matrix(1.00, 0.00, -0.00, -1.00, 754.9, 473.0)">H</text><text xml:space="preserve" font-family="DINCondensed-Bold" font-weight="bold" font-size="87.0" fill="#FFFFFF" transform="matrix(1.00, 0.00, -0.00, -1.00, 792.0, 473.0)">E</text><text xml:space="preserve" font-family="DINCondensed-Bold" font-weight="bold" font-size="87.0" fill="#FFFFFF" transform="matrix(1.00, 0.00, -0.00, -1.00, 824.2, 473.0)"> </text><text xml:space="preserve" font-family="DINCondensed-Bold" font-weight="bold" font-size="87.0" fill="#FFFFFF" transform="matrix(1.00, 0.00, -0.00, -1.00, 74.0, 387.0)">P</text><text xml:space="preserve" font-family="DINCondensed-Bold" font-weight="bold" font-size="87.0" fill="#FFFFFF" transform="matrix(1.00, 0.00, -0.00, -1.00, 109.4, 387.0)">R</text><text xml:space="preserve" font-family="DINCondensed-Bold" font-weight="bold" font-size="87.0" fill="#FFFFFF" transform="matrix(1.00, 0.00, -0.00, -1.00, 146.5, 387.0)">O</text><text xml:space="preserve" font-family="DINCondensed-Bold" font-weight="bold" font-size="87.0" fill="#FFFFFF" transform="matrix(1.00, 0.00, -0.00, -1.00, 183.5, 387.0)">C</text><text xml:space="preserve" font-family="DINCondensed-Bold" font-weight="bold" font-size="87.0" fill="#FFFFFF" transform="matrix(1.00, 0.00, -0.00, -1.00, 218.9, 387.0)">E</text><text xml:space="preserve" font-family="DINCondensed-Bold" font-weight="bold" font-size="87.0" fill="#FFFFFF" transform="matrix(1.00, 0.00, -0.00, -1.00, 251.1, 387.0)">S</text><text xml:space="preserve" font-family="DINCondensed-Bold" font-weight="bold" font-size="87.0" fill="#FFFFFF" transform="matrix(1.00, 0.00, -0.00, -1.00, 286.5, 387.0)">S</text><text xml:space="preserve" font-family="DINCondensed-Bold" font-weight="bold" font-size="87.0" fill="#FFFFFF" transform="matrix(1.00, 0.00, -0.00, -1.00, 321.8, 387.0)"> </text><text xml:space="preserve" font-family="DINCondensed-Bold" font-weight="bold" font-size="87.0" fill="#FFFFFF" transform="matrix(1.00, 0.00, -0.00, -1.00, 338.0, 387.0)">O</text><text xml:space="preserve" font-family="DINCondensed-Bold" font-weight="bold" font-size="87.0" fill="#FFFFFF" transform="matrix(1.00, 0.00, -0.00, -1.00, 375.0, 387.0)">F</text><text xml:space="preserve" font-family="DINCondensed-Bold" font-weight="bold" font-size="87.0" fill="#FFFFFF" transform="matrix(1.00, 0.00, -0.00, -1.00, 407.2, 387.0)"> </text><text xml:space="preserve" font-family="DINCondensed-Bold" font-weight="bold" font-size="87.0" fill="#FFFFFF" transform="matrix(1.00, 0.00, -0.00, -1.00, 423.4, 387.0)">C</text><text xml:space="preserve" font-family="DINCondensed-Bold" font-weight="bold" font-size="87.0" fill="#FFFFFF" transform="matrix(1.00, 0.00, -0.00, -1.00, 458.8, 387.0)">O</text><text xml:space="preserve" font-family="DINCondensed-Bold" font-weight="bold" font-size="87.0" fill="#FFFFFF" transform="matrix(1.00, 0.00, -0.00, -1.00, 495.9, 387.0)">M</text><text xml:space="preserve" font-family="DINCondensed-Bold" font-weight="bold" font-size="87.0" fill="#FFFFFF" transform="matrix(1.00, 0.00, -0.00, -1.00, 544.2, 387.0)">P</text><text xml:space="preserve" font-family="DINCondensed-Bold" font-weight="bold" font-size="87.0" fill="#FFFFFF" transform="matrix(1.00, 0.00, -0.00, -1.00, 576.4, 387.0)">A</text><text xml:space="preserve" font-family="DINCondensed-Bold" font-weight="bold" font-size="87.0" fill="#FFFFFF" transform="matrix(1.00, 0.00, -0.00, -1.00, 611.8, 387.0)">R</text><text xml:space="preserve" font-family="DINCondensed-Bold" font-weight="bold" font-size="87.0" fill="#FFFFFF" transform="matrix(1.00, 0.00, -0.00, -1.00, 648.9, 387.0)">I</text><text xml:space="preserve" font-family="DINCondensed-Bold" font-weight="bold" font-size="87.0" fill="#FFFFFF" transform="matrix(1.00, 0.00, -0.00, -1.00, 666.6, 387.0)">N</text><text xml:space="preserve" font-family="DINCondensed-Bold" font-weight="bold" font-size="87.0" fill="#FFFFFF" transform="matrix(1.00, 0.00, -0.00, -1.00, 705.3, 387.0)">G</text><text xml:space="preserve" font-family="DINCondensed-Bold" font-weight="bold" font-size="87.0" fill="#FFFFFF" transform="matrix(1.00, 0.00, -0.00, -1.00, 742.3, 387.0)"> </text><text xml:space="preserve" font-family="DINCondensed-Bold" font-weight="bold" font-size="87.0" fill="#FFFFFF" transform="matrix(1.00, 0.00, -0.00, -1.00, 758.5, 387.0)">“</text><text xml:space="preserve" font-family="DINCondensed-Bold" font-weight="bold" font-size="87.0" fill="#FFFFFF" transform="matrix(1.00, 0.00, -0.00, -1.00, 782.7, 387.0)">W</text><text xml:space="preserve" font-family="DINCondensed-Bold" font-weight="bold" font-size="87.0" fill="#FFFFFF" transform="matrix(1.00, 0.00, -0.00, -1.00, 834.3, 387.0)">H</text><text xml:space="preserve" font-family="DINCondensed-Bold" font-weight="bold" font-size="87.0" fill="#FFFFFF" transform="matrix(1.00, 0.00, -0.00, -1.00, 871.4, 387.0)">A</text><text xml:space="preserve" font-family="DINCondensed-Bold" font-weight="bold" font-size="87.0" fill="#FFFFFF" transform="matrix(1.00, 0.00, -0.00, -1.00, 902.0, 387.0)">T</text><text xml:space="preserve" font-family="DINCondensed-Bold" font-weight="bold" font-size="87.0" fill="#FFFFFF" transform="matrix(1.00, 0.00, -0.00, -1.00, 930.9, 387.0)"> </text><text xml:space="preserve" font-family="DINCondensed-Bold" font-weight="bold" font-size="87.0" fill="#FFFFFF" transform="matrix(1.00, 0.00, -0.00, -1.00, 74.0, 300.0)">I</text><text xml:space="preserve" font-family="DINCondensed-Bold" font-weight="bold" font-size="87.0" fill="#FFFFFF" transform="matrix(1.00, 0.00, -0.00, -1.00, 91.7, 300.0)">S</text><text xml:space="preserve" font-family="DINCondensed-Bold" font-weight="bold" font-size="87.0" fill="#FFFFFF" transform="matrix(1.00, 0.00, -0.00, -1.00, 127.1, 300.0)">”</text><text xml:space="preserve" font-family="DINCondensed-Bold" font-weight="bold" font-size="87.0" fill="#FFFFFF" transform="matrix(1.00, 0.00, -0.00, -1.00, 151.3, 300.0)"> </text><text xml:space="preserve" font-family="DINCondensed-Bold" font-weight="bold" font-size="87.0" fill="#FFFFFF" transform="matrix(1.00, 0.00, -0.00, -1.00, 167.4, 300.0)">W</text><text xml:space="preserve" font-family="DINCondensed-Bold" font-weight="bold" font-size="87.0" fill="#FFFFFF" transform="matrix(1.00, 0.00, -0.00, -1.00, 219.0, 300.0)">I</text><text xml:space="preserve" font-family="DINCondensed-Bold" font-weight="bold" font-size="87.0" fill="#FFFFFF" transform="matrix(1.00, 0.00, -0.00, -1.00, 236.8, 300.0)">T</text><text xml:space="preserve" font-family="DINCondensed-Bold" font-weight="bold" font-size="87.0" fill="#FFFFFF" transform="matrix(1.00, 0.00, -0.00, -1.00, 265.7, 300.0)">H</text><text xml:space="preserve" font-family="DINCondensed-Bold" font-weight="bold" font-size="87.0" fill="#FFFFFF" transform="matrix(1.00, 0.00, -0.00, -1.00, 302.7, 300.0)"> </text><text xml:space="preserve" font-family="DINCondensed-Bold" font-weight="bold" font-size="87.0" fill="#FFFFFF" transform="matrix(1.00, 0.00, -0.00, -1.00, 318.9, 300.0)">“</text><text xml:space="preserve" font-family="DINCondensed-Bold" font-weight="bold" font-size="87.0" fill="#FFFFFF" transform="matrix(1.00, 0.00, -0.00, -1.00, 343.1, 300.0)">W</text><text xml:space="preserve" font-family="DINCondensed-Bold" font-weight="bold" font-size="87.0" fill="#FFFFFF" transform="matrix(1.00, 0.00, -0.00, -1.00, 394.7, 300.0)">H</text><text xml:space="preserve" font-family="DINCondensed-Bold" font-weight="bold" font-size="87.0" fill="#FFFFFF" transform="matrix(1.00, 0.00, -0.00, -1.00, 431.7, 300.0)">A</text><text xml:space="preserve" font-family="DINCondensed-Bold" font-weight="bold" font-size="87.0" fill="#FFFFFF" transform="matrix(1.00, 0.00, -0.00, -1.00, 462.4, 300.0)">T</text><text xml:space="preserve" font-family="DINCondensed-Bold" font-weight="bold" font-size="87.0" fill="#FFFFFF" transform="matrix(1.00, 0.00, -0.00, -1.00, 491.3, 300.0)"> </text><text xml:space="preserve" font-family="DINCondensed-Bold" font-weight="bold" font-size="87.0" fill="#FFFFFF" transform="matrix(1.00, 0.00, -0.00, -1.00, 507.4, 300.0)">O</text><text xml:space="preserve" font-family="DINCondensed-Bold" font-weight="bold" font-size="87.0" fill="#FFFFFF" transform="matrix(1.00, 0.00, -0.00, -1.00, 544.5, 300.0)">U</text><text xml:space="preserve" font-family="DINCondensed-Bold" font-weight="bold" font-size="87.0" fill="#FFFFFF" transform="matrix(1.00, 0.00, -0.00, -1.00, 581.6, 300.0)">G</text><text xml:space="preserve" font-family="DINCondensed-Bold" font-weight="bold" font-size="87.0" fill="#FFFFFF" transform="matrix(1.00, 0.00, -0.00, -1.00, 618.6, 300.0)">H</text><text xml:space="preserve" font-family="DINCondensed-Bold" font-weight="bold" font-size="87.0" fill="#FFFFFF" transform="matrix(1.00, 0.00, -0.00, -1.00, 655.7, 300.0)">T</text><text xml:space="preserve" font-family="DINCondensed-Bold" font-weight="bold" font-size="87.0" fill="#FFFFFF" transform="matrix(1.00, 0.00, -0.00, -1.00, 684.6, 300.0)"> </text><text xml:space="preserve" font-family="DINCondensed-Bold" font-weight="bold" font-size="87.0" fill="#FFFFFF" transform="matrix(1.00, 0.00, -0.00, -1.00, 700.7, 300.0)">T</text><text xml:space="preserve" font-family="DINCondensed-Bold" font-weight="bold" font-size="87.0" fill="#FFFFFF" transform="matrix(1.00, 0.00, -0.00, -1.00, 728.6, 300.0)">O</text><text xml:space="preserve" font-family="DINCondensed-Bold" font-weight="bold" font-size="87.0" fill="#FFFFFF" transform="matrix(1.00, 0.00, -0.00, -1.00, 765.7, 300.0)"> </text><text xml:space="preserve" font-family="DINCondensed-Bold" font-weight="bold" font-size="87.0" fill="#FFFFFF" transform="matrix(1.00, 0.00, -0.00, -1.00, 781.8, 300.0)">B</text><text xml:space="preserve" font-family="DINCondensed-Bold" font-weight="bold" font-size="87.0" fill="#FFFFFF" transform="matrix(1.00, 0.00, -0.00, -1.00, 818.9, 300.0)">E</text><text xml:space="preserve" font-family="DINCondensed-Bold" font-weight="bold" font-size="87.0" fill="#FFFFFF" transform="matrix(1.00, 0.00, -0.00, -1.00, 851.1, 300.0)">”</text><text xml:space="preserve" font-family="DINCondensed-Bold" font-weight="bold" font-size="87.0" fill="#FFFFFF" transform="matrix(1.00, 0.00, -0.00, -1.00, 875.3, 300.0)"> </text><text xml:space="preserve" font-family="DINCondensed-Bold" font-weight="bold" font-size="60.0" fill="#838686" transform="matrix(1.00, 0.00, -0.00, -1.00, 738.0, 107.9)">L</text><text xml:space="preserve" font-family="DINCondensed-Bold" font-weight="bold" font-size="60.0" fill="#838686" transform="matrix(1.00, 0.00, -0.00, -1.00, 760.2, 107.9)">e</text><text xml:space="preserve" font-family="DINCondensed-Bold" font-weight="bold" font-size="60.0" fill="#838686" transform="matrix(1.00, 0.00, -0.00, -1.00, 782.4, 107.9)">e</text><text xml:space="preserve" font-family="DINCondensed-Bold" font-weight="bold" font-size="60.0" fill="#838686" transform="matrix(1.00, 0.00, -0.00, -1.00, 804.6, 107.9)"> </text><text xml:space="preserve" font-family="DINCondensed-Bold" font-weight="bold" font-size="60.0" fill="#838686" transform="matrix(1.00, 0.00, -0.00, -1.00, 815.8, 107.9)">C</text><text xml:space="preserve" font-family="DINCondensed-Bold" font-weight="bold" font-size="60.0" fill="#838686" transform="matrix(1.00, 0.00, -0.00, -1.00, 840.2, 107.9)">o</text><text xml:space="preserve" font-family="DINCondensed-Bold" font-weight="bold" font-size="60.0" fill="#838686" transform="matrix(1.00, 0.00, -0.00, -1.00, 862.4, 107.9)">p</text><text xml:space="preserve" font-family="DINCondensed-Bold" font-weight="bold" font-size="60.0" fill="#838686" transform="matrix(1.00, 0.00, -0.00, -1.00, 885.8, 107.9)">e</text><text xml:space="preserve" font-family="DINCondensed-Bold" font-weight="bold" font-size="60.0" fill="#838686" transform="matrix(1.00, 0.00, -0.00, -1.00, 908.0, 107.9)">l</text><text xml:space="preserve" font-family="DINCondensed-Bold" font-weight="bold" font-size="60.0" fill="#838686" transform="matrix(1.00, 0.00, -0.00, -1.00, 919.1, 107.9)">a</text><text xml:space="preserve" font-family="DINCondensed-Bold" font-weight="bold" font-size="60.0" fill="#838686" transform="matrix(1.00, 0.00, -0.00, -1.00, 941.3, 107.9)">n</text><text xml:space="preserve" font-family="DINCondensed-Bold" font-weight="bold" font-size="60.0" fill="#838686" transform="matrix(1.00, 0.00, -0.00, -1.00, 964.7, 107.9)">d</text><text xml:space="preserve" font-family="DINAlternate-Bold" font-weight="bold" font-size="24.0" fill="#838686" transform="matrix(1.00, 0.00, -0.00, -1.00, 36.0, 705.0)">T</text><text xml:space="preserve" font-family="DINAlternate-Bold" font-weight="bold" font-size="24.0" fill="#838686" transform="matrix(1.00, 0.00, -0.00, -1.00, 49.2, 705.0)">E</text><text xml:space="preserve" font-family="DINAlternate-Bold" font-weight="bold" font-size="24.0" fill="#838686" transform="matrix(1.00, 0.00, -0.00, -1.00, 63.7, 705.0)">S</text><text xml:space="preserve" font-family="DINAlternate-Bold" font-weight="bold" font-size="24.0" fill="#838686" transform="matrix(1.00, 0.00, -0.00, -1.00, 78.7, 705.0)">T</text><text xml:space="preserve" font-family="DINAlternate-Bold" font-weight="bold" font-size="24.0" fill="#838686" transform="matrix(1.00, 0.00, -0.00, -1.00, 91.9, 705.0)">I</text><text xml:space="preserve" font-family="DINAlternate-Bold" font-weight="bold" font-size="24.0" fill="#838686" transform="matrix(1.00, 0.00, -0.00, -1.00, 99.3, 705.0)">N</text><text xml:space="preserve" font-family="DINAlternate-Bold" font-weight="bold" font-size="24.0" fill="#838686" transform="matrix(1.00, 0.00, -0.00, -1.00, 116.9, 705.0)">G</text></g></svg>