<?xml version="1.0" encoding="UTF-8" standalone="no"?><svg xmlns="http://www.w3.org/2000/svg" xmlns:xlink="http://www.w3.org/1999/xlink" clip-rule="evenodd" stroke-miterlimit="4.00" viewBox="0 0 1024 768"><desc>SVG generated by Keynote</desc><defs></defs><g transform="matrix(1.00, 0.00, -0.00, -1.00, 0.0, 768.0)"><path d="M 0.0 768.0 L 1024.0 768.0 L 1024.0 0.0 L 0.0 0.0 Z M 0.0 768.0 " fill="#212121"></path><path d="M 0.0 0.0 L 960.0 0.0 " fill="none" stroke="#A6AAA9" stroke-width="2.00" transform="matrix(1.00, 0.00, 0.00, -1.00, 32.0, 689.8)"></path><path d="M 46.8 582.0 C 41.4 582.0 37.0 577.6 37.0 572.2 L 37.0 223.8 C 37.0 218.4 41.4 214.0 46.8 214.0 L 794.7 214.0 L 822.1 170.2 L 849.4 214.0 L 977.2 214.0 C 982.6 214.0 987.0 218.4 987.0 223.8 L 987.0 572.2 C 987.0 577.6 982.6 582.0 977.2 582.0 L 46.8 582.0 Z M 46.8 582.0 " fill="#34A4DA"></path><text xml:space="preserve" font-family="DINCondensed-Bold" font-weight="bold" font-size="94.0" fill="#FFFFFF" transform="matrix(1.00, 0.00, -0.00, -1.00, 74.0, 468.0)">W</text><text xml:space="preserve" font-family="DINCondensed-Bold" font-weight="bold" font-size="94.0" fill="#FFFFFF" transform="matrix(1.00, 0.00, -0.00, -1.00, 129.7, 468.0)">T</text><text xml:space="preserve" font-family="DINCondensed-Bold" font-weight="bold" font-size="94.0" fill="#FFFFFF" transform="matrix(1.00, 0.00, -0.00, -1.00, 160.9, 468.0)">F</text><text xml:space="preserve" font-family="DINCondensed-Bold" font-weight="bold" font-size="94.0" fill="#FFFFFF" transform="matrix(1.00, 0.00, -0.00, -1.00, 195.7, 468.0)"> </text><text xml:space="preserve" font-family="DINCondensed-Bold" font-weight="bold" font-size="94.0" fill="#FFFFFF" transform="matrix(1.00, 0.00, -0.00, -1.00, 213.2, 468.0)">I</text><text xml:space="preserve" font-family="DINCondensed-Bold" font-weight="bold" font-size="94.0" fill="#FFFFFF" transform="matrix(1.00, 0.00, -0.00, -1.00, 232.4, 468.0)">S</text><text xml:space="preserve" font-family="DINCondensed-Bold" font-weight="bold" font-size="94.0" fill="#FFFFFF" transform="matrix(1.00, 0.00, -0.00, -1.00, 270.6, 468.0)"> </text><text xml:space="preserve" font-family="DINCondensed-Bold" font-weight="bold" font-size="94.0" fill="#FFFFFF" transform="matrix(1.00, 0.00, -0.00, -1.00, 288.0, 468.0)">T</text><text xml:space="preserve" font-family="DINCondensed-Bold" font-weight="bold" font-size="94.0" fill="#FFFFFF" transform="matrix(1.00, 0.00, -0.00, -1.00, 319.2, 468.0)">E</text><text xml:space="preserve" font-family="DINCondensed-Bold" font-weight="bold" font-size="94.0" fill="#FFFFFF" transform="matrix(1.00, 0.00, -0.00, -1.00, 354.0, 468.0)">S</text><text xml:space="preserve" font-family="DINCondensed-Bold" font-weight="bold" font-size="94.0" fill="#FFFFFF" transform="matrix(1.00, 0.00, -0.00, -1.00, 392.2, 468.0)">T</text><text xml:space="preserve" font-family="DINCondensed-Bold" font-weight="bold" font-size="94.0" fill="#FFFFFF" transform="matrix(1.00, 0.00, -0.00, -1.00, 423.4, 468.0)"> </text><text xml:space="preserve" font-family="DINCondensed-Bold" font-weight="bold" font-size="94.0" fill="#FFFFFF" transform="matrix(1.00, 0.00, -0.00, -1.00, 440.9, 468.0)">D</text><text xml:space="preserve" font-family="DINCondensed-Bold" font-weight="bold" font-size="94.0" fill="#FFFFFF" transform="matrix(1.00, 0.00, -0.00, -1.00, 480.9, 468.0)">E</text><text xml:space="preserve" font-family="DINCondensed-Bold" font-weight="bold" font-size="94.0" fill="#FFFFFF" transform="matrix(1.00, 0.00, -0.00, -1.00, 515.7, 468.0)">S</text><text xml:space="preserve" font-family="DINCondensed-Bold" font-weight="bold" font-size="94.0" fill="#FFFFFF" transform="matrix(1.00, 0.00, -0.00, -1.00, 553.9, 468.0)">I</text><text xml:space="preserve" font-family="DINCondensed-Bold" font-weight="bold" font-size="94.0" fill="#FFFFFF" transform="matrix(1.00, 0.00, -0.00, -1.00, 573.0, 468.0)">G</text><text xml:space="preserve" font-family="DINCondensed-Bold" font-weight="bold" font-size="94.0" fill="#FFFFFF" transform="matrix(1.00, 0.00, -0.00, -1.00, 613.1, 468.0)">N</text><text xml:space="preserve" font-family="DINCondensed-Bold" font-weight="bold" font-size="94.0" fill="#FFFFFF" transform="matrix(1.00, 0.00, -0.00, -1.00, 654.8, 468.0)">?</text><text xml:space="preserve" font-family="DINCondensed-Bold" font-weight="bold" font-size="60.0" fill="#838686" transform="matrix(1.00, 0.00, -0.00, -1.00, 683.3, 107.9)">9</text><text xml:space="preserve" font-family="DINCondensed-Bold" font-weight="bold" font-size="60.0" fill="#838686" transform="matrix(1.00, 0.00, -0.00, -1.00, 705.6, 107.9)">0</text><text xml:space="preserve" font-family="DINCondensed-Bold" font-weight="bold" font-size="60.0" fill="#838686" transform="matrix(1.00, 0.00, -0.00, -1.00, 727.9, 107.9)">%</text><text xml:space="preserve" font-family="DINCondensed-Bold" font-weight="bold" font-size="60.0" fill="#838686" transform="matrix(1.00, 0.00, -0.00, -1.00, 749.0, 107.9)"> </text><text xml:space="preserve" font-family="DINCondensed-Bold" font-weight="bold" font-size="60.0" fill="#838686" transform="matrix(1.00, 0.00, -0.00, -1.00, 760.2, 107.9)"> </text><text xml:space="preserve" font-family="DINCondensed-Bold" font-weight="bold" font-size="60.0" fill="#838686" transform="matrix(1.00, 0.00, -0.00, -1.00, 771.3, 107.9)">o</text><text xml:space="preserve" font-family="DINCondensed-Bold" font-weight="bold" font-size="60.0" fill="#838686" transform="matrix(1.00, 0.00, -0.00, -1.00, 793.5, 107.9)">f</text><text xml:space="preserve" font-family="DINCondensed-Bold" font-weight="bold" font-size="60.0" fill="#838686" transform="matrix(1.00, 0.00, -0.00, -1.00, 806.9, 107.9)"> </text><text xml:space="preserve" font-family="DINCondensed-Bold" font-weight="bold" font-size="60.0" fill="#838686" transform="matrix(1.00, 0.00, -0.00, -1.00, 818.0, 107.9)">a</text><text xml:space="preserve" font-family="DINCondensed-Bold" font-weight="bold" font-size="60.0" fill="#838686" transform="matrix(1.00, 0.00, -0.00, -1.00, 840.2, 107.9)">u</text><text xml:space="preserve" font-family="DINCondensed-Bold" font-weight="bold" font-size="60.0" fill="#838686" transform="matrix(1.00, 0.00, -0.00, -1.00, 863.6, 107.9)">d</text><text xml:space="preserve" font-family="DINCondensed-Bold" font-weight="bold" font-size="60.0" fill="#838686" transform="matrix(1.00, 0.00, -0.00, -1.00, 886.9, 107.9)">i</text><text xml:space="preserve" font-family="DINCondensed-Bold" font-weight="bold" font-size="60.0" fill="#838686" transform="matrix(1.00, 0.00, -0.00, -1.00, 898.1, 107.9)">e</text><text xml:space="preserve" font-family="DINCondensed-Bold" font-weight="bold" font-size="60.0" fill="#838686" transform="matrix(1.00, 0.00, -0.00, -1.00, 920.3, 107.9)">n</text><text xml:space="preserve" font-family="DINCondensed-Bold" font-weight="bold" font-size="60.0" fill="#838686" transform="matrix(1.00, 0.00, -0.00, -1.00, 943.6, 107.9)">c</text><text xml:space="preserve" font-family="DINCondensed-Bold" font-weight="bold" font-size="60.0" fill="#838686" transform="matrix(1.00, 0.00, -0.00, -1.00, 965.8, 107.9)">e</text><text xml:space="preserve" font-family="DINAlternate-Bold" font-weight="bold" font-size="24.0" fill="#838686" transform="matrix(1.00, 0.00, -0.00, -1.00, 36.0, 705.0)">T</text><text xml:space="preserve" font-family="DINAlternate-Bold" font-weight="bold" font-size="24.0" fill="#838686" transform="matrix(1.00, 0.00, -0.00, -1.00, 49.2, 705.0)">E</text><text xml:space="preserve" font-family="DINAlternate-Bold" font-weight="bold" font-size="24.0" fill="#838686" transform="matrix(1.00, 0.00, -0.00, -1.00, 63.7, 705.0)">X</text><text xml:space="preserve" font-family="DINAlternate-Bold" font-weight="bold" font-size="24.0" fill="#838686" transform="matrix(1.00, 0.00, -0.00, -1.00, 77.8, 705.0)">T</text></g></svg>