<?xml version="1.0" encoding="UTF-8" standalone="no"?><svg xmlns="http://www.w3.org/2000/svg" xmlns:xlink="http://www.w3.org/1999/xlink" clip-rule="evenodd" stroke-miterlimit="4.00" viewBox="0 0 164 41"><desc>SVG generated by Keynote</desc><defs></defs><g transform="matrix(1.00, 0.00, -0.00, -1.00, 0.0, 41.0)"><text xml:space="preserve" font-family="LucidaGrande" font-size="33.9" fill="#34A4DA" transform="matrix(1.00, 0.00, -0.00, -1.00, 0.0, 8.0)">▸</text><text xml:space="preserve" font-family="AvenirNext-Medium" font-size="32.3" fill="#838686" transform="matrix(1.00, 0.00, -0.00, -1.00, 33.0, 11.0)">T</text><text xml:space="preserve" font-family="AvenirNext-Medium" font-size="32.3" fill="#838686" transform="matrix(1.00, 0.00, -0.00, -1.00, 48.3, 11.0)">e</text><text xml:space="preserve" font-family="AvenirNext-Medium" font-size="32.3" fill="#838686" transform="matrix(1.00, 0.00, -0.00, -1.00, 66.8, 11.0)">s</text><text xml:space="preserve" font-family="AvenirNext-Medium" font-size="32.3" fill="#838686" transform="matrix(1.00, 0.00, -0.00, -1.00, 81.1, 11.0)">t</text><text xml:space="preserve" font-family="AvenirNext-Medium" font-size="32.3" fill="#838686" transform="matrix(1.00, 0.00, -0.00, -1.00, 91.8, 11.0)"> </text><text xml:space="preserve" font-family="AvenirNext-Medium" font-size="32.3" fill="#838686" transform="matrix(1.00, 0.00, -0.00, -1.00, 99.8, 11.0)">p</text><text xml:space="preserve" font-family="AvenirNext-Medium" font-size="32.3" fill="#838686" transform="matrix(1.00, 0.00, -0.00, -1.00, 120.3, 11.0)">l</text><text xml:space="preserve" font-family="AvenirNext-Medium" font-size="32.3" fill="#838686" transform="matrix(1.00, 0.00, -0.00, -1.00, 128.7, 11.0)">a</text><text xml:space="preserve" font-family="AvenirNext-Medium" font-size="32.3" fill="#838686" transform="matrix(1.00, 0.00, -0.00, -1.00, 146.2, 11.0)">n</text></g></svg>