<?xml version="1.0" encoding="UTF-8" standalone="no"?><svg xmlns="http://www.w3.org/2000/svg" xmlns:xlink="http://www.w3.org/1999/xlink" clip-rule="evenodd" stroke-miterlimit="4.00" viewBox="0 0 305 41"><desc>SVG generated by Keynote</desc><defs></defs><g transform="matrix(1.00, 0.00, -0.00, -1.00, 0.0, 41.0)"><text xml:space="preserve" font-family="LucidaGrande" font-size="33.9" fill="#34A4DA" transform="matrix(1.00, 0.00, -0.00, -1.00, 0.0, 8.0)">▸</text><text xml:space="preserve" font-family="AvenirNext-Medium" font-size="32.3" fill="#838686" transform="matrix(1.00, 0.00, -0.00, -1.00, 33.0, 11.0)">I</text><text xml:space="preserve" font-family="AvenirNext-Medium" font-size="32.3" fill="#838686" transform="matrix(1.00, 0.00, -0.00, -1.00, 41.8, 11.0)">n</text><text xml:space="preserve" font-family="AvenirNext-Medium" font-size="32.3" fill="#838686" transform="matrix(1.00, 0.00, -0.00, -1.00, 60.6, 11.0)">t</text><text xml:space="preserve" font-family="AvenirNext-Medium" font-size="32.3" fill="#838686" transform="matrix(1.00, 0.00, -0.00, -1.00, 71.2, 11.0)">e</text><text xml:space="preserve" font-family="AvenirNext-Medium" font-size="32.3" fill="#838686" transform="matrix(1.00, 0.00, -0.00, -1.00, 89.7, 11.0)">g</text><text xml:space="preserve" font-family="AvenirNext-Medium" font-size="32.3" fill="#838686" transform="matrix(1.00, 0.00, -0.00, -1.00, 110.1, 11.0)">r</text><text xml:space="preserve" font-family="AvenirNext-Medium" font-size="32.3" fill="#838686" transform="matrix(1.00, 0.00, -0.00, -1.00, 121.4, 11.0)">a</text><text xml:space="preserve" font-family="AvenirNext-Medium" font-size="32.3" fill="#838686" transform="matrix(1.00, 0.00, -0.00, -1.00, 138.6, 11.0)">t</text><text xml:space="preserve" font-family="AvenirNext-Medium" font-size="32.3" fill="#838686" transform="matrix(1.00, 0.00, -0.00, -1.00, 149.2, 11.0)">i</text><text xml:space="preserve" font-family="AvenirNext-Medium" font-size="32.3" fill="#838686" transform="matrix(1.00, 0.00, -0.00, -1.00, 157.5, 11.0)">o</text><text xml:space="preserve" font-family="AvenirNext-Medium" font-size="32.3" fill="#838686" transform="matrix(1.00, 0.00, -0.00, -1.00, 177.3, 11.0)">n</text><text xml:space="preserve" font-family="AvenirNext-Medium" font-size="32.3" fill="#838686" transform="matrix(1.00, 0.00, -0.00, -1.00, 196.1, 11.0)"> </text><text xml:space="preserve" font-family="AvenirNext-Medium" font-size="32.3" fill="#838686" transform="matrix(1.00, 0.00, -0.00, -1.00, 204.1, 11.0)">t</text><text xml:space="preserve" font-family="AvenirNext-Medium" font-size="32.3" fill="#838686" transform="matrix(1.00, 0.00, -0.00, -1.00, 214.8, 11.0)">e</text><text xml:space="preserve" font-family="AvenirNext-Medium" font-size="32.3" fill="#838686" transform="matrix(1.00, 0.00, -0.00, -1.00, 233.3, 11.0)">s</text><text xml:space="preserve" font-family="AvenirNext-Medium" font-size="32.3" fill="#838686" transform="matrix(1.00, 0.00, -0.00, -1.00, 247.6, 11.0)">t</text><text xml:space="preserve" font-family="AvenirNext-Medium" font-size="32.3" fill="#838686" transform="matrix(1.00, 0.00, -0.00, -1.00, 258.2, 11.0)">i</text><text xml:space="preserve" font-family="AvenirNext-Medium" font-size="32.3" fill="#838686" transform="matrix(1.00, 0.00, -0.00, -1.00, 266.6, 11.0)">n</text><text xml:space="preserve" font-family="AvenirNext-Medium" font-size="32.3" fill="#838686" transform="matrix(1.00, 0.00, -0.00, -1.00, 285.4, 11.0)">g</text></g></svg>