<?xml version="1.0" encoding="UTF-8" standalone="no"?><svg xmlns="http://www.w3.org/2000/svg" xmlns:xlink="http://www.w3.org/1999/xlink" clip-rule="evenodd" stroke-miterlimit="4.00" viewBox="0 0 419 41"><desc>SVG generated by Keynote</desc><defs></defs><g transform="matrix(1.00, 0.00, -0.00, -1.00, 0.0, 41.0)"><text xml:space="preserve" font-family="LucidaGrande" font-size="33.9" fill="#34A4DA" transform="matrix(1.00, 0.00, -0.00, -1.00, 0.0, 7.8)">▸</text><text xml:space="preserve" font-family="AvenirNext-Medium" font-size="32.3" fill="#838686" transform="matrix(1.00, 0.00, -0.00, -1.00, 33.0, 10.0)">S</text><text xml:space="preserve" font-family="AvenirNext-Medium" font-size="32.3" fill="#838686" transform="matrix(1.00, 0.00, -0.00, -1.00, 51.0, 10.0)">y</text><text xml:space="preserve" font-family="AvenirNext-Medium" font-size="32.3" fill="#838686" transform="matrix(1.00, 0.00, -0.00, -1.00, 67.3, 10.0)">s</text><text xml:space="preserve" font-family="AvenirNext-Medium" font-size="32.3" fill="#838686" transform="matrix(1.00, 0.00, -0.00, -1.00, 81.6, 10.0)">t</text><text xml:space="preserve" font-family="AvenirNext-Medium" font-size="32.3" fill="#838686" transform="matrix(1.00, 0.00, -0.00, -1.00, 92.2, 10.0)">e</text><text xml:space="preserve" font-family="AvenirNext-Medium" font-size="32.3" fill="#838686" transform="matrix(1.00, 0.00, -0.00, -1.00, 110.7, 10.0)">m</text><text xml:space="preserve" font-family="AvenirNext-Medium" font-size="32.3" fill="#838686" transform="matrix(1.00, 0.00, -0.00, -1.00, 139.4, 10.0)"> </text><text xml:space="preserve" font-family="AvenirNext-Medium" font-size="32.3" fill="#838686" transform="matrix(1.00, 0.00, -0.00, -1.00, 147.5, 10.0)">i</text><text xml:space="preserve" font-family="AvenirNext-Medium" font-size="32.3" fill="#838686" transform="matrix(1.00, 0.00, -0.00, -1.00, 155.8, 10.0)">n</text><text xml:space="preserve" font-family="AvenirNext-Medium" font-size="32.3" fill="#838686" transform="matrix(1.00, 0.00, -0.00, -1.00, 174.6, 10.0)">t</text><text xml:space="preserve" font-family="AvenirNext-Medium" font-size="32.3" fill="#838686" transform="matrix(1.00, 0.00, -0.00, -1.00, 185.3, 10.0)">e</text><text xml:space="preserve" font-family="AvenirNext-Medium" font-size="32.3" fill="#838686" transform="matrix(1.00, 0.00, -0.00, -1.00, 203.8, 10.0)">g</text><text xml:space="preserve" font-family="AvenirNext-Medium" font-size="32.3" fill="#838686" transform="matrix(1.00, 0.00, -0.00, -1.00, 224.2, 10.0)">r</text><text xml:space="preserve" font-family="AvenirNext-Medium" font-size="32.3" fill="#838686" transform="matrix(1.00, 0.00, -0.00, -1.00, 235.5, 10.0)">a</text><text xml:space="preserve" font-family="AvenirNext-Medium" font-size="32.3" fill="#838686" transform="matrix(1.00, 0.00, -0.00, -1.00, 252.6, 10.0)">t</text><text xml:space="preserve" font-family="AvenirNext-Medium" font-size="32.3" fill="#838686" transform="matrix(1.00, 0.00, -0.00, -1.00, 263.3, 10.0)">i</text><text xml:space="preserve" font-family="AvenirNext-Medium" font-size="32.3" fill="#838686" transform="matrix(1.00, 0.00, -0.00, -1.00, 271.6, 10.0)">o</text><text xml:space="preserve" font-family="AvenirNext-Medium" font-size="32.3" fill="#838686" transform="matrix(1.00, 0.00, -0.00, -1.00, 291.3, 10.0)">n</text><text xml:space="preserve" font-family="AvenirNext-Medium" font-size="32.3" fill="#838686" transform="matrix(1.00, 0.00, -0.00, -1.00, 310.1, 10.0)"> </text><text xml:space="preserve" font-family="AvenirNext-Medium" font-size="32.3" fill="#838686" transform="matrix(1.00, 0.00, -0.00, -1.00, 318.2, 10.0)">t</text><text xml:space="preserve" font-family="AvenirNext-Medium" font-size="32.3" fill="#838686" transform="matrix(1.00, 0.00, -0.00, -1.00, 328.8, 10.0)">e</text><text xml:space="preserve" font-family="AvenirNext-Medium" font-size="32.3" fill="#838686" transform="matrix(1.00, 0.00, -0.00, -1.00, 347.3, 10.0)">s</text><text xml:space="preserve" font-family="AvenirNext-Medium" font-size="32.3" fill="#838686" transform="matrix(1.00, 0.00, -0.00, -1.00, 361.7, 10.0)">t</text><text xml:space="preserve" font-family="AvenirNext-Medium" font-size="32.3" fill="#838686" transform="matrix(1.00, 0.00, -0.00, -1.00, 372.3, 10.0)">i</text><text xml:space="preserve" font-family="AvenirNext-Medium" font-size="32.3" fill="#838686" transform="matrix(1.00, 0.00, -0.00, -1.00, 380.7, 10.0)">n</text><text xml:space="preserve" font-family="AvenirNext-Medium" font-size="32.3" fill="#838686" transform="matrix(1.00, 0.00, -0.00, -1.00, 399.5, 10.0)">g</text></g></svg>