<?xml version="1.0" encoding="UTF-8" standalone="no"?><svg xmlns="http://www.w3.org/2000/svg" xmlns:xlink="http://www.w3.org/1999/xlink" clip-rule="evenodd" stroke-miterlimit="4.00" viewBox="0 0 1024 768"><desc>SVG generated by Keynote</desc><defs></defs><g transform="matrix(1.00, 0.00, -0.00, -1.00, 0.0, 768.0)"><path d="M 0.0 768.0 L 1024.0 768.0 L 1024.0 0.0 L 0.0 0.0 Z M 0.0 768.0 " fill="#212121"></path><path d="M 0.0 0.0 L 960.0 0.0 " fill="none" stroke="#A6AAA9" stroke-width="2.00" transform="matrix(1.00, 0.00, 0.00, -1.00, 32.0, 689.8)"></path><text xml:space="preserve" font-family="DINAlternate-Bold" font-weight="bold" font-size="24.0" fill="#838686" transform="matrix(1.00, 0.00, -0.00, -1.00, 36.0, 705.0)">T</text><text xml:space="preserve" font-family="DINAlternate-Bold" font-weight="bold" font-size="24.0" fill="#838686" transform="matrix(1.00, 0.00, -0.00, -1.00, 49.2, 705.0)">E</text><text xml:space="preserve" font-family="DINAlternate-Bold" font-weight="bold" font-size="24.0" fill="#838686" transform="matrix(1.00, 0.00, -0.00, -1.00, 63.7, 705.0)">S</text><text xml:space="preserve" font-family="DINAlternate-Bold" font-weight="bold" font-size="24.0" fill="#838686" transform="matrix(1.00, 0.00, -0.00, -1.00, 78.7, 705.0)">T</text><text xml:space="preserve" font-family="DINAlternate-Bold" font-weight="bold" font-size="24.0" fill="#838686" transform="matrix(1.00, 0.00, -0.00, -1.00, 91.9, 705.0)"> </text><text xml:space="preserve" font-family="DINAlternate-Bold" font-weight="bold" font-size="24.0" fill="#838686" transform="matrix(1.00, 0.00, -0.00, -1.00, 98.9, 705.0)">D</text><text xml:space="preserve" font-family="DINAlternate-Bold" font-weight="bold" font-size="24.0" fill="#838686" transform="matrix(1.00, 0.00, -0.00, -1.00, 115.2, 705.0)">E</text><text xml:space="preserve" font-family="DINAlternate-Bold" font-weight="bold" font-size="24.0" fill="#838686" transform="matrix(1.00, 0.00, -0.00, -1.00, 129.7, 705.0)">S</text><text xml:space="preserve" font-family="DINAlternate-Bold" font-weight="bold" font-size="24.0" fill="#838686" transform="matrix(1.00, 0.00, -0.00, -1.00, 144.7, 705.0)">I</text><text xml:space="preserve" font-family="DINAlternate-Bold" font-weight="bold" font-size="24.0" fill="#838686" transform="matrix(1.00, 0.00, -0.00, -1.00, 152.1, 705.0)">G</text><text xml:space="preserve" font-family="DINAlternate-Bold" font-weight="bold" font-size="24.0" fill="#838686" transform="matrix(1.00, 0.00, -0.00, -1.00, 167.9, 705.0)">N</text><text xml:space="preserve" font-family="DINCondensed-Bold" font-weight="bold" font-size="48.0" fill="#34A4DA" transform="matrix(1.00, 0.00, -0.00, -1.00, 36.0, 608.0)">L</text><text xml:space="preserve" font-family="DINCondensed-Bold" font-weight="bold" font-size="48.0" fill="#34A4DA" transform="matrix(1.00, 0.00, -0.00, -1.00, 53.8, 608.0)">E</text><text xml:space="preserve" font-family="DINCondensed-Bold" font-weight="bold" font-size="48.0" fill="#34A4DA" transform="matrix(1.00, 0.00, -0.00, -1.00, 71.5, 608.0)">V</text><text xml:space="preserve" font-family="DINCondensed-Bold" font-weight="bold" font-size="48.0" fill="#34A4DA" transform="matrix(1.00, 0.00, -0.00, -1.00, 91.1, 608.0)">E</text><text xml:space="preserve" font-family="DINCondensed-Bold" font-weight="bold" font-size="48.0" fill="#34A4DA" transform="matrix(1.00, 0.00, -0.00, -1.00, 108.8, 608.0)">L</text><text xml:space="preserve" font-family="DINCondensed-Bold" font-weight="bold" font-size="48.0" fill="#34A4DA" transform="matrix(1.00, 0.00, -0.00, -1.00, 126.6, 608.0)">S</text><text xml:space="preserve" font-family="DINCondensed-Bold" font-weight="bold" font-size="48.0" fill="#34A4DA" transform="matrix(1.00, 0.00, -0.00, -1.00, 146.1, 608.0)"> </text><text xml:space="preserve" font-family="DINCondensed-Bold" font-weight="bold" font-size="48.0" fill="#34A4DA" transform="matrix(1.00, 0.00, -0.00, -1.00, 155.0, 608.0)">O</text><text xml:space="preserve" font-family="DINCondensed-Bold" font-weight="bold" font-size="48.0" fill="#34A4DA" transform="matrix(1.00, 0.00, -0.00, -1.00, 175.4, 608.0)">F</text><text xml:space="preserve" font-family="DINCondensed-Bold" font-weight="bold" font-size="48.0" fill="#34A4DA" transform="matrix(1.00, 0.00, -0.00, -1.00, 193.2, 608.0)"> </text><text xml:space="preserve" font-family="DINCondensed-Bold" font-weight="bold" font-size="48.0" fill="#34A4DA" transform="matrix(1.00, 0.00, -0.00, -1.00, 202.1, 608.0)">T</text><text xml:space="preserve" font-family="DINCondensed-Bold" font-weight="bold" font-size="48.0" fill="#34A4DA" transform="matrix(1.00, 0.00, -0.00, -1.00, 218.1, 608.0)">E</text><text xml:space="preserve" font-family="DINCondensed-Bold" font-weight="bold" font-size="48.0" fill="#34A4DA" transform="matrix(1.00, 0.00, -0.00, -1.00, 235.8, 608.0)">S</text><text xml:space="preserve" font-family="DINCondensed-Bold" font-weight="bold" font-size="48.0" fill="#34A4DA" transform="matrix(1.00, 0.00, -0.00, -1.00, 255.3, 608.0)">T</text><text xml:space="preserve" font-family="DINCondensed-Bold" font-weight="bold" font-size="48.0" fill="#34A4DA" transform="matrix(1.00, 0.00, -0.00, -1.00, 271.2, 608.0)">I</text><text xml:space="preserve" font-family="DINCondensed-Bold" font-weight="bold" font-size="48.0" fill="#34A4DA" transform="matrix(1.00, 0.00, -0.00, -1.00, 281.0, 608.0)">N</text><text xml:space="preserve" font-family="DINCondensed-Bold" font-weight="bold" font-size="48.0" fill="#34A4DA" transform="matrix(1.00, 0.00, -0.00, -1.00, 302.4, 608.0)">G</text><text xml:space="preserve" font-family="DINCondensed-Bold" font-weight="bold" font-size="48.0" fill="#34A4DA" transform="matrix(1.00, 0.00, -0.00, -1.00, 322.8, 608.0)"> </text><text xml:space="preserve" font-family="DINCondensed-Bold" font-weight="bold" font-size="48.0" fill="#34A4DA" transform="matrix(1.00, 0.00, -0.00, -1.00, 331.7, 608.0)">(</text><text xml:space="preserve" font-family="DINCondensed-Bold" font-weight="bold" font-size="48.0" fill="#34A4DA" transform="matrix(1.00, 0.00, -0.00, -1.00, 342.4, 608.0)">C</text><text xml:space="preserve" font-family="DINCondensed-Bold" font-weight="bold" font-size="48.0" fill="#34A4DA" transform="matrix(1.00, 0.00, -0.00, -1.00, 361.9, 608.0)">L</text><text xml:space="preserve" font-family="DINCondensed-Bold" font-weight="bold" font-size="48.0" fill="#34A4DA" transform="matrix(1.00, 0.00, -0.00, -1.00, 379.7, 608.0)">A</text><text xml:space="preserve" font-family="DINCondensed-Bold" font-weight="bold" font-size="48.0" fill="#34A4DA" transform="matrix(1.00, 0.00, -0.00, -1.00, 399.2, 608.0)">S</text><text xml:space="preserve" font-family="DINCondensed-Bold" font-weight="bold" font-size="48.0" fill="#34A4DA" transform="matrix(1.00, 0.00, -0.00, -1.00, 418.7, 608.0)">S</text><text xml:space="preserve" font-family="DINCondensed-Bold" font-weight="bold" font-size="48.0" fill="#34A4DA" transform="matrix(1.00, 0.00, -0.00, -1.00, 438.2, 608.0)">I</text><text xml:space="preserve" font-family="DINCondensed-Bold" font-weight="bold" font-size="48.0" fill="#34A4DA" transform="matrix(1.00, 0.00, -0.00, -1.00, 448.0, 608.0)">C</text><text xml:space="preserve" font-family="DINCondensed-Bold" font-weight="bold" font-size="48.0" fill="#34A4DA" transform="matrix(1.00, 0.00, -0.00, -1.00, 467.5, 608.0)">)</text><text xml:space="preserve" font-family="LucidaGrande" font-size="33.9" fill="#34A4DA" transform="matrix(1.00, 0.00, -0.00, -1.00, 36.0, 513.2)">▸</text><text xml:space="preserve" font-family="AvenirNext-Medium" font-size="32.3" fill="#838686" transform="matrix(1.00, 0.00, -0.00, -1.00, 69.0, 516.0)">U</text><text xml:space="preserve" font-family="AvenirNext-Medium" font-size="32.3" fill="#838686" transform="matrix(1.00, 0.00, -0.00, -1.00, 92.0, 516.0)">n</text><text xml:space="preserve" font-family="AvenirNext-Medium" font-size="32.3" fill="#838686" transform="matrix(1.00, 0.00, -0.00, -1.00, 110.8, 516.0)">i</text><text xml:space="preserve" font-family="AvenirNext-Medium" font-size="32.3" fill="#838686" transform="matrix(1.00, 0.00, -0.00, -1.00, 119.2, 516.0)">t</text><text xml:space="preserve" font-family="AvenirNext-Medium" font-size="32.3" fill="#838686" transform="matrix(1.00, 0.00, -0.00, -1.00, 129.8, 516.0)"> </text><text xml:space="preserve" font-family="AvenirNext-Medium" font-size="32.3" fill="#838686" transform="matrix(1.00, 0.00, -0.00, -1.00, 137.9, 516.0)">t</text><text xml:space="preserve" font-family="AvenirNext-Medium" font-size="32.3" fill="#838686" transform="matrix(1.00, 0.00, -0.00, -1.00, 148.5, 516.0)">e</text><text xml:space="preserve" font-family="AvenirNext-Medium" font-size="32.3" fill="#838686" transform="matrix(1.00, 0.00, -0.00, -1.00, 167.0, 516.0)">s</text><text xml:space="preserve" font-family="AvenirNext-Medium" font-size="32.3" fill="#838686" transform="matrix(1.00, 0.00, -0.00, -1.00, 181.3, 516.0)">t</text><text xml:space="preserve" font-family="AvenirNext-Medium" font-size="32.3" fill="#838686" transform="matrix(1.00, 0.00, -0.00, -1.00, 192.0, 516.0)">i</text><text xml:space="preserve" font-family="AvenirNext-Medium" font-size="32.3" fill="#838686" transform="matrix(1.00, 0.00, -0.00, -1.00, 200.3, 516.0)">n</text><text xml:space="preserve" font-family="AvenirNext-Medium" font-size="32.3" fill="#838686" transform="matrix(1.00, 0.00, -0.00, -1.00, 219.1, 516.0)">g</text><text xml:space="preserve" font-family="LucidaGrande" font-size="33.9" fill="#34A4DA" transform="matrix(1.00, 0.00, -0.00, -1.00, 36.0, 442.6)">▸</text><text xml:space="preserve" font-family="AvenirNext-Medium" font-size="32.3" fill="#838686" transform="matrix(1.00, 0.00, -0.00, -1.00, 69.0, 445.0)">C</text><text xml:space="preserve" font-family="AvenirNext-Medium" font-size="32.3" fill="#838686" transform="matrix(1.00, 0.00, -0.00, -1.00, 91.5, 445.0)">o</text><text xml:space="preserve" font-family="AvenirNext-Medium" font-size="32.3" fill="#838686" transform="matrix(1.00, 0.00, -0.00, -1.00, 111.2, 445.0)">m</text><text xml:space="preserve" font-family="AvenirNext-Medium" font-size="32.3" fill="#838686" transform="matrix(1.00, 0.00, -0.00, -1.00, 139.8, 445.0)">p</text><text xml:space="preserve" font-family="AvenirNext-Medium" font-size="32.3" fill="#838686" transform="matrix(1.00, 0.00, -0.00, -1.00, 160.3, 445.0)">o</text><text xml:space="preserve" font-family="AvenirNext-Medium" font-size="32.3" fill="#838686" transform="matrix(1.00, 0.00, -0.00, -1.00, 180.0, 445.0)">n</text><text xml:space="preserve" font-family="AvenirNext-Medium" font-size="32.3" fill="#838686" transform="matrix(1.00, 0.00, -0.00, -1.00, 198.8, 445.0)">e</text><text xml:space="preserve" font-family="AvenirNext-Medium" font-size="32.3" fill="#838686" transform="matrix(1.00, 0.00, -0.00, -1.00, 217.3, 445.0)">n</text><text xml:space="preserve" font-family="AvenirNext-Medium" font-size="32.3" fill="#838686" transform="matrix(1.00, 0.00, -0.00, -1.00, 236.1, 445.0)">t</text><text xml:space="preserve" font-family="AvenirNext-Medium" font-size="32.3" fill="#838686" transform="matrix(1.00, 0.00, -0.00, -1.00, 246.7, 445.0)"> </text><text xml:space="preserve" font-family="AvenirNext-Medium" font-size="32.3" fill="#838686" transform="matrix(1.00, 0.00, -0.00, -1.00, 254.8, 445.0)">t</text><text xml:space="preserve" font-family="AvenirNext-Medium" font-size="32.3" fill="#838686" transform="matrix(1.00, 0.00, -0.00, -1.00, 265.4, 445.0)">e</text><text xml:space="preserve" font-family="AvenirNext-Medium" font-size="32.3" fill="#838686" transform="matrix(1.00, 0.00, -0.00, -1.00, 284.0, 445.0)">s</text><text xml:space="preserve" font-family="AvenirNext-Medium" font-size="32.3" fill="#838686" transform="matrix(1.00, 0.00, -0.00, -1.00, 298.3, 445.0)">t</text><text xml:space="preserve" font-family="AvenirNext-Medium" font-size="32.3" fill="#838686" transform="matrix(1.00, 0.00, -0.00, -1.00, 308.9, 445.0)">i</text><text xml:space="preserve" font-family="AvenirNext-Medium" font-size="32.3" fill="#838686" transform="matrix(1.00, 0.00, -0.00, -1.00, 317.3, 445.0)">n</text><text xml:space="preserve" font-family="AvenirNext-Medium" font-size="32.3" fill="#838686" transform="matrix(1.00, 0.00, -0.00, -1.00, 336.1, 445.0)">g</text><text xml:space="preserve" font-family="LucidaGrande" font-size="33.9" fill="#34A4DA" transform="matrix(1.00, 0.00, -0.00, -1.00, 36.0, 372.0)">▸</text><text xml:space="preserve" font-family="AvenirNext-Medium" font-size="32.3" fill="#838686" transform="matrix(1.00, 0.00, -0.00, -1.00, 69.0, 375.0)">I</text><text xml:space="preserve" font-family="AvenirNext-Medium" font-size="32.3" fill="#838686" transform="matrix(1.00, 0.00, -0.00, -1.00, 77.8, 375.0)">n</text><text xml:space="preserve" font-family="AvenirNext-Medium" font-size="32.3" fill="#838686" transform="matrix(1.00, 0.00, -0.00, -1.00, 96.6, 375.0)">t</text><text xml:space="preserve" font-family="AvenirNext-Medium" font-size="32.3" fill="#838686" transform="matrix(1.00, 0.00, -0.00, -1.00, 107.2, 375.0)">e</text><text xml:space="preserve" font-family="AvenirNext-Medium" font-size="32.3" fill="#838686" transform="matrix(1.00, 0.00, -0.00, -1.00, 125.7, 375.0)">g</text><text xml:space="preserve" font-family="AvenirNext-Medium" font-size="32.3" fill="#838686" transform="matrix(1.00, 0.00, -0.00, -1.00, 146.1, 375.0)">r</text><text xml:space="preserve" font-family="AvenirNext-Medium" font-size="32.3" fill="#838686" transform="matrix(1.00, 0.00, -0.00, -1.00, 157.4, 375.0)">a</text><text xml:space="preserve" font-family="AvenirNext-Medium" font-size="32.3" fill="#838686" transform="matrix(1.00, 0.00, -0.00, -1.00, 174.6, 375.0)">t</text><text xml:space="preserve" font-family="AvenirNext-Medium" font-size="32.3" fill="#838686" transform="matrix(1.00, 0.00, -0.00, -1.00, 185.2, 375.0)">i</text><text xml:space="preserve" font-family="AvenirNext-Medium" font-size="32.3" fill="#838686" transform="matrix(1.00, 0.00, -0.00, -1.00, 193.5, 375.0)">o</text><text xml:space="preserve" font-family="AvenirNext-Medium" font-size="32.3" fill="#838686" transform="matrix(1.00, 0.00, -0.00, -1.00, 213.3, 375.0)">n</text><text xml:space="preserve" font-family="AvenirNext-Medium" font-size="32.3" fill="#838686" transform="matrix(1.00, 0.00, -0.00, -1.00, 232.1, 375.0)"> </text><text xml:space="preserve" font-family="AvenirNext-Medium" font-size="32.3" fill="#838686" transform="matrix(1.00, 0.00, -0.00, -1.00, 240.1, 375.0)">t</text><text xml:space="preserve" font-family="AvenirNext-Medium" font-size="32.3" fill="#838686" transform="matrix(1.00, 0.00, -0.00, -1.00, 250.8, 375.0)">e</text><text xml:space="preserve" font-family="AvenirNext-Medium" font-size="32.3" fill="#838686" transform="matrix(1.00, 0.00, -0.00, -1.00, 269.3, 375.0)">s</text><text xml:space="preserve" font-family="AvenirNext-Medium" font-size="32.3" fill="#838686" transform="matrix(1.00, 0.00, -0.00, -1.00, 283.6, 375.0)">t</text><text xml:space="preserve" font-family="AvenirNext-Medium" font-size="32.3" fill="#838686" transform="matrix(1.00, 0.00, -0.00, -1.00, 294.2, 375.0)">i</text><text xml:space="preserve" font-family="AvenirNext-Medium" font-size="32.3" fill="#838686" transform="matrix(1.00, 0.00, -0.00, -1.00, 302.6, 375.0)">n</text><text xml:space="preserve" font-family="AvenirNext-Medium" font-size="32.3" fill="#838686" transform="matrix(1.00, 0.00, -0.00, -1.00, 321.4, 375.0)">g</text><text xml:space="preserve" font-family="LucidaGrande" font-size="33.9" fill="#34A4DA" transform="matrix(1.00, 0.00, -0.00, -1.00, 36.0, 301.4)">▸</text><text xml:space="preserve" font-family="AvenirNext-Medium" font-size="32.3" fill="#838686" transform="matrix(1.00, 0.00, -0.00, -1.00, 69.0, 304.0)">C</text><text xml:space="preserve" font-family="AvenirNext-Medium" font-size="32.3" fill="#838686" transform="matrix(1.00, 0.00, -0.00, -1.00, 91.5, 304.0)">o</text><text xml:space="preserve" font-family="AvenirNext-Medium" font-size="32.3" fill="#838686" transform="matrix(1.00, 0.00, -0.00, -1.00, 111.2, 304.0)">m</text><text xml:space="preserve" font-family="AvenirNext-Medium" font-size="32.3" fill="#838686" transform="matrix(1.00, 0.00, -0.00, -1.00, 139.8, 304.0)">p</text><text xml:space="preserve" font-family="AvenirNext-Medium" font-size="32.3" fill="#838686" transform="matrix(1.00, 0.00, -0.00, -1.00, 160.3, 304.0)">o</text><text xml:space="preserve" font-family="AvenirNext-Medium" font-size="32.3" fill="#838686" transform="matrix(1.00, 0.00, -0.00, -1.00, 180.0, 304.0)">n</text><text xml:space="preserve" font-family="AvenirNext-Medium" font-size="32.3" fill="#838686" transform="matrix(1.00, 0.00, -0.00, -1.00, 198.8, 304.0)">e</text><text xml:space="preserve" font-family="AvenirNext-Medium" font-size="32.3" fill="#838686" transform="matrix(1.00, 0.00, -0.00, -1.00, 217.3, 304.0)">n</text><text xml:space="preserve" font-family="AvenirNext-Medium" font-size="32.3" fill="#838686" transform="matrix(1.00, 0.00, -0.00, -1.00, 236.1, 304.0)">t</text><text xml:space="preserve" font-family="AvenirNext-Medium" font-size="32.3" fill="#838686" transform="matrix(1.00, 0.00, -0.00, -1.00, 246.7, 304.0)"> </text><text xml:space="preserve" font-family="AvenirNext-Medium" font-size="32.3" fill="#838686" transform="matrix(1.00, 0.00, -0.00, -1.00, 254.8, 304.0)">i</text><text xml:space="preserve" font-family="AvenirNext-Medium" font-size="32.3" fill="#838686" transform="matrix(1.00, 0.00, -0.00, -1.00, 263.2, 304.0)">n</text><text xml:space="preserve" font-family="AvenirNext-Medium" font-size="32.3" fill="#838686" transform="matrix(1.00, 0.00, -0.00, -1.00, 282.0, 304.0)">t</text><text xml:space="preserve" font-family="AvenirNext-Medium" font-size="32.3" fill="#838686" transform="matrix(1.00, 0.00, -0.00, -1.00, 292.6, 304.0)">e</text><text xml:space="preserve" font-family="AvenirNext-Medium" font-size="32.3" fill="#838686" transform="matrix(1.00, 0.00, -0.00, -1.00, 311.1, 304.0)">g</text><text xml:space="preserve" font-family="AvenirNext-Medium" font-size="32.3" fill="#838686" transform="matrix(1.00, 0.00, -0.00, -1.00, 331.5, 304.0)">r</text><text xml:space="preserve" font-family="AvenirNext-Medium" font-size="32.3" fill="#838686" transform="matrix(1.00, 0.00, -0.00, -1.00, 342.8, 304.0)">a</text><text xml:space="preserve" font-family="AvenirNext-Medium" font-size="32.3" fill="#838686" transform="matrix(1.00, 0.00, -0.00, -1.00, 360.0, 304.0)">t</text><text xml:space="preserve" font-family="AvenirNext-Medium" font-size="32.3" fill="#838686" transform="matrix(1.00, 0.00, -0.00, -1.00, 370.6, 304.0)">i</text><text xml:space="preserve" font-family="AvenirNext-Medium" font-size="32.3" fill="#838686" transform="matrix(1.00, 0.00, -0.00, -1.00, 379.0, 304.0)">o</text><text xml:space="preserve" font-family="AvenirNext-Medium" font-size="32.3" fill="#838686" transform="matrix(1.00, 0.00, -0.00, -1.00, 398.7, 304.0)">n</text><text xml:space="preserve" font-family="AvenirNext-Medium" font-size="32.3" fill="#838686" transform="matrix(1.00, 0.00, -0.00, -1.00, 417.5, 304.0)"> </text><text xml:space="preserve" font-family="AvenirNext-Medium" font-size="32.3" fill="#838686" transform="matrix(1.00, 0.00, -0.00, -1.00, 425.6, 304.0)">t</text><text xml:space="preserve" font-family="AvenirNext-Medium" font-size="32.3" fill="#838686" transform="matrix(1.00, 0.00, -0.00, -1.00, 436.2, 304.0)">e</text><text xml:space="preserve" font-family="AvenirNext-Medium" font-size="32.3" fill="#838686" transform="matrix(1.00, 0.00, -0.00, -1.00, 454.7, 304.0)">s</text><text xml:space="preserve" font-family="AvenirNext-Medium" font-size="32.3" fill="#838686" transform="matrix(1.00, 0.00, -0.00, -1.00, 469.0, 304.0)">t</text><text xml:space="preserve" font-family="AvenirNext-Medium" font-size="32.3" fill="#838686" transform="matrix(1.00, 0.00, -0.00, -1.00, 479.7, 304.0)">i</text><text xml:space="preserve" font-family="AvenirNext-Medium" font-size="32.3" fill="#838686" transform="matrix(1.00, 0.00, -0.00, -1.00, 488.0, 304.0)">n</text><text xml:space="preserve" font-family="AvenirNext-Medium" font-size="32.3" fill="#838686" transform="matrix(1.00, 0.00, -0.00, -1.00, 506.8, 304.0)">g</text><text xml:space="preserve" font-family="LucidaGrande" font-size="33.9" fill="#34A4DA" transform="matrix(1.00, 0.00, -0.00, -1.00, 36.0, 230.8)">▸</text><text xml:space="preserve" font-family="AvenirNext-Medium" font-size="32.3" fill="#838686" transform="matrix(1.00, 0.00, -0.00, -1.00, 69.0, 233.0)">S</text><text xml:space="preserve" font-family="AvenirNext-Medium" font-size="32.3" fill="#838686" transform="matrix(1.00, 0.00, -0.00, -1.00, 87.0, 233.0)">y</text><text xml:space="preserve" font-family="AvenirNext-Medium" font-size="32.3" fill="#838686" transform="matrix(1.00, 0.00, -0.00, -1.00, 103.3, 233.0)">s</text><text xml:space="preserve" font-family="AvenirNext-Medium" font-size="32.3" fill="#838686" transform="matrix(1.00, 0.00, -0.00, -1.00, 117.6, 233.0)">t</text><text xml:space="preserve" font-family="AvenirNext-Medium" font-size="32.3" fill="#838686" transform="matrix(1.00, 0.00, -0.00, -1.00, 128.2, 233.0)">e</text><text xml:space="preserve" font-family="AvenirNext-Medium" font-size="32.3" fill="#838686" transform="matrix(1.00, 0.00, -0.00, -1.00, 146.7, 233.0)">m</text><text xml:space="preserve" font-family="AvenirNext-Medium" font-size="32.3" fill="#838686" transform="matrix(1.00, 0.00, -0.00, -1.00, 175.4, 233.0)"> </text><text xml:space="preserve" font-family="AvenirNext-Medium" font-size="32.3" fill="#838686" transform="matrix(1.00, 0.00, -0.00, -1.00, 183.5, 233.0)">i</text><text xml:space="preserve" font-family="AvenirNext-Medium" font-size="32.3" fill="#838686" transform="matrix(1.00, 0.00, -0.00, -1.00, 191.8, 233.0)">n</text><text xml:space="preserve" font-family="AvenirNext-Medium" font-size="32.3" fill="#838686" transform="matrix(1.00, 0.00, -0.00, -1.00, 210.6, 233.0)">t</text><text xml:space="preserve" font-family="AvenirNext-Medium" font-size="32.3" fill="#838686" transform="matrix(1.00, 0.00, -0.00, -1.00, 221.3, 233.0)">e</text><text xml:space="preserve" font-family="AvenirNext-Medium" font-size="32.3" fill="#838686" transform="matrix(1.00, 0.00, -0.00, -1.00, 239.8, 233.0)">g</text><text xml:space="preserve" font-family="AvenirNext-Medium" font-size="32.3" fill="#838686" transform="matrix(1.00, 0.00, -0.00, -1.00, 260.2, 233.0)">r</text><text xml:space="preserve" font-family="AvenirNext-Medium" font-size="32.3" fill="#838686" transform="matrix(1.00, 0.00, -0.00, -1.00, 271.5, 233.0)">a</text><text xml:space="preserve" font-family="AvenirNext-Medium" font-size="32.3" fill="#838686" transform="matrix(1.00, 0.00, -0.00, -1.00, 288.6, 233.0)">t</text><text xml:space="preserve" font-family="AvenirNext-Medium" font-size="32.3" fill="#838686" transform="matrix(1.00, 0.00, -0.00, -1.00, 299.3, 233.0)">i</text><text xml:space="preserve" font-family="AvenirNext-Medium" font-size="32.3" fill="#838686" transform="matrix(1.00, 0.00, -0.00, -1.00, 307.6, 233.0)">o</text><text xml:space="preserve" font-family="AvenirNext-Medium" font-size="32.3" fill="#838686" transform="matrix(1.00, 0.00, -0.00, -1.00, 327.3, 233.0)">n</text><text xml:space="preserve" font-family="AvenirNext-Medium" font-size="32.3" fill="#838686" transform="matrix(1.00, 0.00, -0.00, -1.00, 346.1, 233.0)"> </text><text xml:space="preserve" font-family="AvenirNext-Medium" font-size="32.3" fill="#838686" transform="matrix(1.00, 0.00, -0.00, -1.00, 354.2, 233.0)">t</text><text xml:space="preserve" font-family="AvenirNext-Medium" font-size="32.3" fill="#838686" transform="matrix(1.00, 0.00, -0.00, -1.00, 364.8, 233.0)">e</text><text xml:space="preserve" font-family="AvenirNext-Medium" font-size="32.3" fill="#838686" transform="matrix(1.00, 0.00, -0.00, -1.00, 383.3, 233.0)">s</text><text xml:space="preserve" font-family="AvenirNext-Medium" font-size="32.3" fill="#838686" transform="matrix(1.00, 0.00, -0.00, -1.00, 397.7, 233.0)">t</text><text xml:space="preserve" font-family="AvenirNext-Medium" font-size="32.3" fill="#838686" transform="matrix(1.00, 0.00, -0.00, -1.00, 408.3, 233.0)">i</text><text xml:space="preserve" font-family="AvenirNext-Medium" font-size="32.3" fill="#838686" transform="matrix(1.00, 0.00, -0.00, -1.00, 416.7, 233.0)">n</text><text xml:space="preserve" font-family="AvenirNext-Medium" font-size="32.3" fill="#838686" transform="matrix(1.00, 0.00, -0.00, -1.00, 435.5, 233.0)">g</text><text xml:space="preserve" font-family="LucidaGrande" font-size="33.9" fill="#34A4DA" transform="matrix(1.00, 0.00, -0.00, -1.00, 36.0, 160.2)">▸</text><text xml:space="preserve" font-family="AvenirNext-Medium" font-size="32.3" fill="#838686" transform="matrix(1.00, 0.00, -0.00, -1.00, 69.0, 163.0)">A</text><text xml:space="preserve" font-family="AvenirNext-Medium" font-size="32.3" fill="#838686" transform="matrix(1.00, 0.00, -0.00, -1.00, 92.0, 163.0)">l</text><text xml:space="preserve" font-family="AvenirNext-Medium" font-size="32.3" fill="#838686" transform="matrix(1.00, 0.00, -0.00, -1.00, 100.4, 163.0)">p</text><text xml:space="preserve" font-family="AvenirNext-Medium" font-size="32.3" fill="#838686" transform="matrix(1.00, 0.00, -0.00, -1.00, 120.8, 163.0)">h</text><text xml:space="preserve" font-family="AvenirNext-Medium" font-size="32.3" fill="#838686" transform="matrix(1.00, 0.00, -0.00, -1.00, 139.7, 163.0)">a</text><text xml:space="preserve" font-family="AvenirNext-Medium" font-size="32.3" fill="#838686" transform="matrix(1.00, 0.00, -0.00, -1.00, 157.2, 163.0)"> </text><text xml:space="preserve" font-family="AvenirNext-Medium" font-size="32.3" fill="#838686" transform="matrix(1.00, 0.00, -0.00, -1.00, 165.3, 163.0)">t</text><text xml:space="preserve" font-family="AvenirNext-Medium" font-size="32.3" fill="#838686" transform="matrix(1.00, 0.00, -0.00, -1.00, 175.9, 163.0)">e</text><text xml:space="preserve" font-family="AvenirNext-Medium" font-size="32.3" fill="#838686" transform="matrix(1.00, 0.00, -0.00, -1.00, 194.4, 163.0)">s</text><text xml:space="preserve" font-family="AvenirNext-Medium" font-size="32.3" fill="#838686" transform="matrix(1.00, 0.00, -0.00, -1.00, 208.8, 163.0)">t</text><text xml:space="preserve" font-family="AvenirNext-Medium" font-size="32.3" fill="#838686" transform="matrix(1.00, 0.00, -0.00, -1.00, 219.4, 163.0)">i</text><text xml:space="preserve" font-family="AvenirNext-Medium" font-size="32.3" fill="#838686" transform="matrix(1.00, 0.00, -0.00, -1.00, 227.8, 163.0)">n</text><text xml:space="preserve" font-family="AvenirNext-Medium" font-size="32.3" fill="#838686" transform="matrix(1.00, 0.00, -0.00, -1.00, 246.6, 163.0)">g</text><text xml:space="preserve" font-family="LucidaGrande" font-size="33.9" fill="#34A4DA" transform="matrix(1.00, 0.00, -0.00, -1.00, 36.0, 89.6)">▸</text><text xml:space="preserve" font-family="AvenirNext-Medium" font-size="32.3" fill="#838686" transform="matrix(1.00, 0.00, -0.00, -1.00, 69.0, 92.0)">B</text><text xml:space="preserve" font-family="AvenirNext-Medium" font-size="32.3" fill="#838686" transform="matrix(1.00, 0.00, -0.00, -1.00, 89.7, 92.0)">e</text><text xml:space="preserve" font-family="AvenirNext-Medium" font-size="32.3" fill="#838686" transform="matrix(1.00, 0.00, -0.00, -1.00, 108.2, 92.0)">t</text><text xml:space="preserve" font-family="AvenirNext-Medium" font-size="32.3" fill="#838686" transform="matrix(1.00, 0.00, -0.00, -1.00, 118.9, 92.0)">a</text><text xml:space="preserve" font-family="AvenirNext-Medium" font-size="32.3" fill="#838686" transform="matrix(1.00, 0.00, -0.00, -1.00, 136.4, 92.0)"> </text><text xml:space="preserve" font-family="AvenirNext-Medium" font-size="32.3" fill="#838686" transform="matrix(1.00, 0.00, -0.00, -1.00, 144.5, 92.0)">t</text><text xml:space="preserve" font-family="AvenirNext-Medium" font-size="32.3" fill="#838686" transform="matrix(1.00, 0.00, -0.00, -1.00, 155.1, 92.0)">e</text><text xml:space="preserve" font-family="AvenirNext-Medium" font-size="32.3" fill="#838686" transform="matrix(1.00, 0.00, -0.00, -1.00, 173.6, 92.0)">s</text><text xml:space="preserve" font-family="AvenirNext-Medium" font-size="32.3" fill="#838686" transform="matrix(1.00, 0.00, -0.00, -1.00, 187.9, 92.0)">t</text><text xml:space="preserve" font-family="AvenirNext-Medium" font-size="32.3" fill="#838686" transform="matrix(1.00, 0.00, -0.00, -1.00, 198.6, 92.0)">i</text><text xml:space="preserve" font-family="AvenirNext-Medium" font-size="32.3" fill="#838686" transform="matrix(1.00, 0.00, -0.00, -1.00, 206.9, 92.0)">n</text><text xml:space="preserve" font-family="AvenirNext-Medium" font-size="32.3" fill="#838686" transform="matrix(1.00, 0.00, -0.00, -1.00, 225.7, 92.0)">g</text></g></svg>